<svg width="36" height="36" viewBox="0 0 36 36" fill="none" xmlns="http://www.w3.org/2000/svg">
<g clip-path="url(#clip0_142_93)">
<path d="M15.61 8.34004L6 18L15.61 27.66C15.6968 27.774 15.8071 27.868 15.9333 27.9357C16.0596 28.0033 16.1989 28.043 16.3419 28.0522C16.4849 28.0613 16.6281 28.0396 16.762 27.9885C16.8958 27.9375 17.0172 27.8583 17.1177 27.7562C17.2183 27.6542 17.2958 27.5318 17.3449 27.3972C17.3941 27.2627 17.4137 27.1191 17.4025 26.9763C17.3914 26.8335 17.3497 26.6947 17.2802 26.5694C17.2108 26.4441 17.1152 26.3352 17 26.25L9.81 19L28.94 19C29.2052 19 29.4596 18.8947 29.6471 18.7071C29.8346 18.5196 29.94 18.2653 29.94 18C29.94 17.7348 29.8346 17.4805 29.6471 17.2929C29.4596 17.1054 29.2052 17 28.94 17L9.81 17L17 9.75004C17.187 9.56174 17.2915 9.30687 17.2906 9.0415C17.2896 8.77614 17.1833 8.52202 16.995 8.33504C16.8067 8.14806 16.5518 8.04355 16.2865 8.04448C16.0211 8.04542 15.767 8.15174 15.58 8.34004L15.61 8.34004Z" fill="#121113"/>
</g>
<defs>
<clipPath id="clip0_142_93">
<rect width="36" height="36" fill="white" transform="translate(0 36) rotate(-90)"/>
</clipPath>
</defs>
</svg>
