<svg width="22" height="22" viewBox="0 0 22 22" fill="none" xmlns="http://www.w3.org/2000/svg">
<g clip-path="url(#clip0_117_129)">
<path d="M13.4081 11.0933L21.5949 2.91278C21.8709 2.59078 22.0151 2.17657 21.9987 1.75294C21.9824 1.3293 21.8066 0.927447 21.5066 0.627671C21.2066 0.327894 20.8044 0.152278 20.3805 0.135915C19.9565 0.119552 19.542 0.263647 19.2198 0.539407L11.0329 8.63581L2.79556 0.404747C2.4733 0.128987 2.05878 -0.0151077 1.63482 0.00125534C1.21087 0.0176184 0.808702 0.193235 0.508696 0.493011C0.20869 0.792788 0.0329392 1.19465 0.0165636 1.61828C0.000187973 2.04191 0.144393 2.45612 0.420364 2.77812L8.64089 11.0933L0.588818 19.0383C0.412478 19.1892 0.269259 19.3748 0.168148 19.5837C0.0670365 19.7925 0.0102161 20.02 0.00125528 20.2518C-0.00770558 20.4836 0.0313856 20.7148 0.116075 20.9308C0.200764 21.1468 0.329223 21.343 0.493389 21.507C0.657555 21.671 0.853883 21.7994 1.07005 21.884C1.28622 21.9686 1.51756 22.0077 1.74955 21.9987C1.98154 21.9898 2.20918 21.933 2.41817 21.832C2.62716 21.731 2.813 21.5878 2.96401 21.4116L10.9992 13.3826L18.9839 21.3611C19.3062 21.6369 19.7207 21.781 20.1446 21.7646C20.5686 21.7483 20.9708 21.5727 21.2708 21.2729C21.5708 20.9731 21.7465 20.5712 21.7629 20.1476C21.7793 19.724 21.6351 19.3098 21.3591 18.9878L13.4081 11.0933Z" fill="#0D324D"/>
</g>
<defs>
<clipPath id="clip0_117_129">
<rect width="22" height="22" fill="white"/>
</clipPath>
</defs>
</svg>
