<svg width="70" height="70" viewBox="0 0 70 70" fill="none" xmlns="http://www.w3.org/2000/svg">
<g clip-path="url(#clip0_148_417)">
<path d="M12.5999 26.2111L34.9999 49.3889L57.3999 26.2111C58.0084 25.5794 58.341 24.7318 58.3246 23.8548C58.3082 22.9778 57.9441 22.1433 57.3124 21.5348C56.6806 20.9262 55.833 20.5936 54.956 20.61C54.079 20.6264 53.2445 20.9905 52.636 21.6223L34.9999 39.8806L17.3443 21.6222C16.7358 20.9905 15.9012 20.6264 15.0242 20.61C14.1472 20.5936 13.2996 20.9262 12.6679 21.5347C12.0362 22.1433 11.6721 22.9778 11.6556 23.8548C11.6392 24.7318 11.9719 25.5794 12.5804 26.2111L12.5999 26.2111Z" fill="#121113"/>
</g>
<defs>
<clipPath id="clip0_148_417">
<rect width="70" height="70" fill="white" transform="translate(70 70) rotate(-180)"/>
</clipPath>
</defs>
</svg>
