<svg width="70" height="70" viewBox="0 0 70 70" fill="none" xmlns="http://www.w3.org/2000/svg">
<g clip-path="url(#clip0_148_417)">
<path d="M57.4001 43.7889L35.0001 20.6111L12.6001 43.7889C11.9916 44.4206 11.659 45.2682 11.6754 46.1452C11.6918 47.0222 12.0559 47.8567 12.6876 48.4652C13.3194 49.0738 14.167 49.4064 15.044 49.39C15.921 49.3736 16.7555 49.0095 17.364 48.3777L35.0001 30.1194L52.6557 48.3777C53.2642 49.0095 54.0988 49.3736 54.9758 49.39C55.8528 49.4064 56.7004 49.0738 57.3321 48.4652C57.9638 47.8567 58.3279 47.0222 58.3444 46.1452C58.3608 45.2682 58.0281 44.4206 57.4196 43.7889H57.4001Z" fill="#121113"/>
</g>
<defs>
<clipPath id="clip0_148_417">
<rect width="70" height="70" fill="white"/>
</clipPath>
</defs>
</svg>
