<svg width="1047" height="217" viewBox="0 0 1047 217" fill="none" xmlns="http://www.w3.org/2000/svg">
<path d="M0 9.23839H42.1649L64.4318 63.5633L86.6987 117.888H88.5938L133.128 9.23839H175.292V170.95H142.129V65.6952H140.787L98.9376 170.16H76.3549L34.5058 65.3004H33.1634V170.95H0V9.23839Z" fill="#0D324D"/>
<path d="M440.798 49.6662L398.396 170.95H360.495L318.093 49.6662H353.625L378.814 136.444H380.077L405.187 49.6662H440.798Z" fill="#0D324D"/>
<path d="M454.231 170.95V49.6662H487.868V170.95H454.231ZM471.129 34.032C466.128 34.032 461.838 32.3738 458.258 29.0575C454.731 25.6885 452.968 21.6615 452.968 16.9765C452.968 12.3442 454.731 8.36982 458.258 5.05348C461.838 1.68449 466.128 0 471.129 0C476.13 0 480.393 1.68449 483.92 5.05348C487.5 8.36982 489.29 12.3442 489.29 16.9765C489.29 21.6615 487.5 25.6885 483.92 29.0575C480.393 32.3738 476.13 34.032 471.129 34.032Z" fill="#0D324D"/>
<path d="M566.306 173.318C553.83 173.318 543.092 170.792 534.09 165.738C525.141 160.632 518.245 153.42 513.403 144.103C508.56 134.733 506.138 123.652 506.138 110.861C506.138 98.3849 508.56 87.4357 513.403 78.013C518.245 68.5904 525.062 61.2471 533.853 55.983C542.697 50.719 553.067 48.087 564.964 48.087C572.965 48.087 580.414 49.3767 587.31 51.9561C594.258 54.4828 600.312 58.2992 605.471 63.4053C610.682 68.5115 614.735 74.9336 617.63 82.6717C620.526 90.3572 621.973 99.3587 621.973 109.676V118.915H519.561V98.069H590.31C590.31 93.2261 589.257 88.9359 587.152 85.1985C585.046 81.461 582.125 78.5394 578.387 76.4338C574.702 74.2756 570.412 73.1964 565.517 73.1964C560.41 73.1964 555.883 74.3809 551.935 76.7497C548.04 79.0658 544.987 82.198 542.776 86.146C540.565 90.0414 539.433 94.3842 539.381 99.1745V118.994C539.381 124.995 540.486 130.18 542.697 134.549C544.96 138.918 548.145 142.287 552.251 144.656C556.357 147.025 561.226 148.209 566.859 148.209C570.596 148.209 574.018 147.683 577.124 146.63C580.229 145.577 582.888 143.998 585.099 141.892C587.31 139.787 588.994 137.207 590.152 134.154L621.263 136.207C619.683 143.682 616.446 150.209 611.551 155.789C606.708 161.316 600.443 165.633 592.758 168.739C585.125 171.792 576.308 173.318 566.306 173.318Z" fill="#0D324D"/>
<path d="M688.459 170.95V9.23839H795.529V37.4273H722.648V75.9601H788.423V104.149H722.648V170.95H688.459Z" fill="#0D324D"/>
<path d="M847.752 9.23839V170.95H814.115V9.23839H847.752Z" fill="#0D324D"/>
<path d="M870.917 170.95V49.6662H904.554V170.95H870.917ZM887.815 34.032C882.814 34.032 878.524 32.3738 874.944 29.0575C871.417 25.6885 869.654 21.6615 869.654 16.9765C869.654 12.3442 871.417 8.36982 874.944 5.05348C878.524 1.68449 882.814 0 887.815 0C892.816 0 897.079 1.68449 900.606 5.05348C904.186 8.36982 905.976 12.3442 905.976 16.9765C905.976 21.6615 904.186 25.6885 900.606 29.0575C897.079 32.3738 892.816 34.032 887.815 34.032Z" fill="#0D324D"/>
<path d="M927.72 216.431V49.6662H960.883V70.038H962.383C963.857 66.7743 965.989 63.458 968.779 60.089C971.622 56.6674 975.307 53.8248 979.834 51.5613C984.413 49.2451 990.099 48.087 996.889 48.087C1005.73 48.087 1013.89 50.4032 1021.37 55.0355C1028.84 59.6152 1034.82 66.5374 1039.29 75.8021C1043.77 85.0142 1046 96.5688 1046 110.466C1046 123.994 1043.82 135.417 1039.45 144.735C1035.13 153.999 1029.24 161.027 1021.76 165.817C1014.34 170.555 1006.02 172.924 996.81 172.924C990.283 172.924 984.729 171.845 980.15 169.686C975.622 167.528 971.911 164.817 969.016 161.553C966.121 158.237 963.91 154.894 962.383 151.525H961.357V216.431H927.72ZM960.646 110.308C960.646 117.52 961.646 123.81 963.647 129.179C965.647 134.549 968.542 138.734 972.332 141.734C976.122 144.682 980.729 146.156 986.151 146.156C991.625 146.156 996.257 144.656 1000.05 141.655C1003.84 138.602 1006.71 134.391 1008.65 129.022C1010.65 123.6 1011.65 117.362 1011.65 110.308C1011.65 103.307 1010.68 97.1478 1008.73 91.8311C1006.79 86.5145 1003.92 82.3559 1000.13 79.3554C996.336 76.3549 991.678 74.8546 986.151 74.8546C980.676 74.8546 976.044 76.3022 972.253 79.1974C968.516 82.0927 965.647 86.1986 963.647 91.5153C961.646 96.832 960.646 103.096 960.646 110.308Z" fill="#0D324D"/>
<circle cx="252.5" cy="112.5" r="62.5" fill="#0D324D"/>
<circle cx="252.5" cy="137.5" r="12.5" fill="white"/>
<circle cx="277.5" cy="112.5" r="12.5" fill="white"/>
<circle cx="227.5" cy="112.5" r="12.5" fill="white"/>
<circle cx="252.5" cy="87.5" r="12.5" fill="white"/>
<line x1="251" y1="168" x2="305" y2="168" stroke="#0D324D" stroke-width="14" stroke-linecap="round"/>
</svg>
