<svg width="399" height="305" viewBox="0 0 399 305" fill="none" xmlns="http://www.w3.org/2000/svg">
<g clip-path="url(#clip0_148_378)">
<rect width="399" height="305" fill="white"/>
<g clip-path="url(#clip1_148_378)">
<mask id="mask0_148_378" style="mask-type:luminance" maskUnits="userSpaceOnUse" x="0" y="0" width="409" height="306">
<path d="M409 0H0V306H409V0Z" fill="white"/>
</mask>
<g mask="url(#mask0_148_378)">
<mask id="mask1_148_378" style="mask-type:luminance" maskUnits="userSpaceOnUse" x="-76" y="5" width="481" height="275">
<path d="M404.851 5.52051H-76V279.185H404.851V5.52051Z" fill="white"/>
</mask>
<g mask="url(#mask1_148_378)">
<mask id="mask2_148_378" style="mask-type:luminance" maskUnits="userSpaceOnUse" x="-79" y="7" width="482" height="275">
<path d="M402.459 7.88672H-78.3921V281.552H402.459V7.88672Z" fill="white"/>
</mask>
<g mask="url(#mask2_148_378)">
<path d="M394.485 197.426C394.485 239.101 361.17 265.428 316.972 281.352C306.89 284.987 296.237 288.077 285.285 290.686C261.909 296.255 237.161 299.62 213.648 301.357C199.68 302.389 186.14 302.846 173.583 302.846C146.549 302.846 123.156 298.438 103.095 290.686C31.1714 262.882 2.14844 191.997 2.14844 126.672C2.14844 43.1238 85.5307 18.6694 173.583 9.6986C351.824 -8.46068 394.485 113.884 394.485 197.426Z" fill="white"/>
<path fill-rule="evenodd" clip-rule="evenodd" d="M167.945 83.7927C161.616 84.844 156.825 86.3425 153.369 88.4521C148.517 91.4143 146.295 95.5816 146.143 101.408C146.143 101.422 146.143 101.437 146.142 101.45L146.134 101.786C146.01 106.95 145.961 108.983 146.355 109.07C146.611 109.128 147.053 108.365 147.783 107.108L147.853 106.987L147.874 106.952C147.885 106.933 147.896 106.914 147.907 106.896C151.095 101.551 160.378 98.9224 161.786 102.293C161.946 102.675 162.005 103.135 161.942 103.676C161.885 104.169 161.789 104.524 161.587 104.796C161.512 104.897 161.423 104.987 161.314 105.068C160.943 105.348 160.355 105.527 159.405 105.723C158.746 105.858 158.145 105.986 157.59 106.11C156.169 106.428 155.053 106.725 154.057 107.062C152.596 107.557 151.389 108.143 149.851 109.021C149.198 109.393 148.629 109.819 148.168 110.236C147.726 110.639 147.385 111.035 147.168 111.376C146.986 111.662 146.892 111.908 146.898 112.084C146.913 112.468 147.409 112.52 148.528 111.927C149.945 111.177 151.892 111.092 153.879 111.483C157.494 112.193 161.241 114.477 162.155 117.189C162.791 119.073 167.218 117.096 167.597 114.763C168.697 107.952 180.02 103.669 185.042 108.169C185.141 108.257 185.237 108.333 185.336 108.397C186.028 108.837 186.839 108.634 189.599 107.533C189.71 107.489 189.821 107.445 189.933 107.402C192.099 106.561 194.416 105.907 196.546 105.503C198.668 105.101 200.604 104.948 202.018 105.109C203.2 105.247 203.749 105.253 203.236 105.125C203.018 105.071 202.733 104.833 202.434 104.478C202.047 104.021 201.638 103.37 201.32 102.677L201.303 102.64L201.286 102.603C201.156 102.31 201.021 102.029 200.88 101.758C200.145 100.337 199.263 99.2197 198.057 98.3104C196.257 96.9531 193.737 96.0588 189.907 95.3087C188.923 95.1163 187.852 94.9333 186.685 94.7543C184.354 94.3971 183.289 92.5989 182.201 87.1808C181.504 83.7068 176.13 82.4291 167.945 83.7927ZM136.905 100.87C136.905 102.631 137.015 103.35 137.151 102.469C137.286 101.587 137.286 100.147 137.151 99.2662C137.015 98.3853 136.905 99.1069 136.905 100.87ZM180.955 99.5857C181.421 99.8088 181.96 100.112 182.531 100.463C183.82 101.258 185.272 102.299 186.409 103.217C187.689 104.252 188.569 105.131 188.37 105.327C188.322 105.374 188.031 105.354 187.568 105.279C186.727 105.143 185.319 104.829 183.777 104.423C177.447 102.759 175.152 102.517 171.027 103.085C168.182 103.476 166.732 103.312 166.413 102.479C166.288 102.149 166.338 101.713 166.55 101.166C166.618 100.993 166.705 100.828 166.812 100.669C167.452 99.7166 168.781 99.0162 170.444 98.6053C172.689 98.0509 175.545 98.0257 178.142 98.6235C179.134 98.8514 180.088 99.1708 180.955 99.5857ZM218.302 102.843C216.294 103.71 214.758 104.934 213.687 106.534C212.617 108.13 212.009 110.101 211.855 112.465C211.766 113.821 211.827 115.306 212.034 116.924C212.118 117.578 212.211 118.319 212.304 119.095C212.573 121.338 212.856 123.879 213.009 125.484C213.19 127.351 213.433 128.923 213.592 129.321C213.617 129.385 213.64 129.418 213.661 129.418C214.73 129.418 216.183 128.6 217.167 127.709C218.082 126.88 218.591 125.988 218.009 125.631C217.153 125.107 217.285 123.01 218.17 123.01C218.586 123.01 219.49 123.402 220.181 123.879C221.28 124.641 221.499 124.622 222.894 122.571C223.01 122.4 223.135 122.214 223.27 122.014C223.782 121.248 224.236 120.467 224.635 119.679C226.714 115.566 227.27 111.261 226.614 107.953C225.743 103.561 222.732 100.93 218.302 102.843ZM196.797 107.31C196.754 107.316 196.711 107.322 196.668 107.329C194.38 107.686 190.938 108.799 189.147 109.655C188.424 110.001 187.969 110.304 187.969 110.499C187.969 110.676 188.227 111.301 188.56 111.938C188.569 111.957 188.579 111.974 188.588 111.992L188.61 112.033C188.619 112.052 188.629 112.071 188.64 112.09C188.643 112.096 188.647 112.102 188.651 112.109C191.057 116.556 190.038 121.13 187.381 124.371C183.669 128.897 176.763 130.825 171.519 126.184C171.512 126.178 171.505 126.171 171.498 126.164C171.49 126.158 171.483 126.152 171.476 126.145C170.22 125.022 168.742 122.936 168.194 121.516C166.544 117.24 163.616 117.994 163.465 122.735C163.289 128.235 159.307 132.626 154.09 133.383C153.565 133.459 153.027 133.499 152.478 133.499C151.102 133.499 150.545 133.548 150.569 133.765C150.571 133.783 150.577 133.802 150.588 133.823C150.637 133.925 150.783 134.056 151.007 134.228C151.515 134.611 152.075 136.232 152.596 138.793C152.703 139.319 152.808 139.885 152.911 140.489C154.543 150.02 159.162 156.271 165.543 158.836C172.61 161.678 181.84 160.001 191.56 153.258C191.601 153.229 191.643 153.2 191.683 153.172C192.937 152.297 193.588 152.089 193.651 152.566C193.695 152.899 193.454 153.564 192.933 154.567C190.608 159.043 186.929 163.657 183.041 167.241C180.506 169.576 177.883 171.474 175.485 172.61C175.362 172.669 175.239 172.726 175.117 172.78L172.832 173.802L172.794 174.55L172.471 180.874L172.469 180.901C172.467 180.949 172.464 180.995 172.462 181.042C172.46 181.077 172.459 181.113 172.457 181.148C172.425 181.804 172.401 182.417 172.388 182.99C172.311 186.229 172.569 188.199 173.623 189.539C174.823 191.061 176.034 191.681 179.976 192.51C181.17 192.763 181.571 193.222 184.76 193.447C188.748 193.616 184.401 193.42 188.748 193.616C189.974 193.671 188.349 193.319 193.532 193.222L195.047 191.913L197.546 191.517C197.562 191.514 197.578 191.512 197.595 191.509C201.242 190.92 205.578 188.753 209.639 185.702C212.803 183.326 215.799 180.413 218.176 177.292C218.494 176.874 218.801 176.452 219.096 176.027L220.347 174.224L221.549 172.489L220.366 170.547L218.58 167.611C216.61 164.374 215.071 161.374 213.829 158.307C212.91 156.04 212.156 153.735 211.511 151.272C211.053 149.517 210.655 148.39 210.29 147.833C210.07 147.498 209.863 147.368 209.662 147.43C209.201 147.571 208.769 147.654 208.365 147.671C206.512 147.75 205.233 146.445 204.325 142.99C203.588 140.182 203.095 135.953 202.739 129.891C202.562 126.872 202.419 123.399 202.297 119.421L201.923 107.403L201.922 107.383L202.485 107.277L203.098 107.163L203.339 107.118C205.853 106.649 200.193 106.815 196.797 107.31ZM173.035 110.193C170.795 112.14 169.606 114.491 169.345 116.811C168.907 120.684 171.052 124.468 175.199 126.13C175.573 126.28 175.965 126.413 176.371 126.527C176.828 126.656 177.305 126.76 177.802 126.839C179.89 127.169 181.736 126.776 183.264 125.909C185.43 124.678 186.952 122.493 187.608 120.066C188.648 116.218 187.505 111.761 183.286 109.533C183.283 109.531 183.281 109.53 183.278 109.528C183.274 109.527 183.271 109.524 183.266 109.523C183.263 109.521 183.261 109.52 183.259 109.518C183.256 109.517 183.253 109.516 183.251 109.514C181.091 108.383 178.485 108.106 176.247 108.627C175.127 108.888 174.098 109.348 173.265 110.004C173.187 110.065 173.11 110.128 173.035 110.193ZM180.71 112.639C181.209 113.132 181.459 113.679 181.466 114.251C181.477 115.275 180.703 116.378 179.164 117.384C178.598 117.755 178.045 118.073 177.511 118.338C175.323 119.429 173.455 119.654 172.323 119.113C171.994 118.955 171.726 118.734 171.531 118.45C171.076 117.786 171.016 116.786 171.476 115.477C171.606 115.109 171.813 114.758 172.081 114.428C173.132 113.135 175.109 112.181 176.971 111.886C178.477 111.649 179.907 111.843 180.71 112.639ZM148.802 113.686C148.648 113.752 148.511 113.815 148.395 113.875C148.025 114.065 147.871 114.212 148.05 114.229C148.281 114.252 147.826 115.474 147.033 116.955C147.029 116.962 147.024 116.97 147.02 116.978C146.416 118.102 146.002 119.292 145.761 120.469C145.226 123.089 145.549 125.641 146.546 127.249C147.243 128.373 148.269 129.035 149.56 128.933C151.865 128.751 152.043 128.84 152.043 130.188C152.043 131.379 151.804 131.596 150.716 131.392C149.547 131.173 149.507 131.19 150.491 131.619L150.507 131.627L150.532 131.637L150.554 131.647C152.278 132.391 154.321 132.033 156.171 130.992C158.704 129.567 160.873 126.862 161.361 123.953C161.391 123.774 161.415 123.593 161.432 123.413C161.453 123.189 161.464 122.966 161.464 122.741V122.572C161.465 122.307 161.465 122.075 161.462 121.874C161.455 121.462 161.434 121.179 161.365 121.006C161.281 120.793 161.125 120.745 160.839 120.831C160.554 120.915 160.138 121.129 159.534 121.443C159.526 121.447 159.519 121.45 159.511 121.454C159.451 121.485 159.388 121.517 159.324 121.551C157.794 122.341 156.164 122.584 154.757 122.419C152.3 122.131 150.525 120.598 151.151 118.557C151.195 118.413 151.251 118.267 151.32 118.118C151.401 117.942 151.534 117.765 151.709 117.592C152.404 116.902 153.757 116.275 155.073 115.95C156.124 115.69 157.152 115.622 157.804 115.87C157.921 115.915 158.024 115.95 158.113 115.975C158.307 116.029 158.433 116.039 158.501 116.015C158.682 115.951 158.472 115.65 158.043 115.278C157.522 114.828 156.678 114.274 155.815 113.92C155.582 113.823 155.34 113.736 155.091 113.658C153.864 113.275 152.464 113.114 151.191 113.187C150.299 113.238 149.469 113.403 148.802 113.686ZM176.52 139.058C175.395 140.758 172.863 141.92 170.138 142.437C166.273 143.171 162.022 142.609 160.851 140.444L160.84 140.424C160.596 139.971 160.44 139.684 160.524 139.508C160.668 139.203 161.534 139.233 163.899 139.314L163.962 139.317C167.435 139.432 172.296 138.065 175.013 136.204L177.072 134.789L177.263 136.22C177.319 136.654 177.244 137.237 177.079 137.803C176.945 138.263 176.751 138.711 176.52 139.058ZM239.359 147.191C239.365 148.464 239.484 148.923 239.625 148.215L239.627 148.203C239.769 147.479 239.762 146.431 239.614 145.872C239.591 145.785 239.569 145.726 239.548 145.693C239.435 145.52 239.353 146.109 239.359 147.191ZM239.936 159.137C239.936 159.863 239.987 160.312 240.063 160.384C240.104 160.424 240.152 160.353 240.204 160.155C240.354 159.593 240.354 158.677 240.204 158.114C240.107 157.745 240.021 157.82 239.975 158.237C239.951 158.45 239.936 158.755 239.936 159.137ZM136.911 191.737C130.086 195.857 135.279 206.425 142.648 203.408C145.1 202.402 146.74 200.145 146.74 197.775C146.74 197.539 146.731 197.306 146.712 197.077C146.542 194.979 145.61 193.263 144.268 192.147C143.564 191.562 142.748 191.141 141.869 190.917C140.322 190.522 138.583 190.735 136.928 191.727C136.922 191.731 136.917 191.734 136.911 191.737ZM212.941 221.714C212.336 222.311 211.878 222.936 211.548 223.57C209.51 227.483 212.375 231.767 216.242 232.451C218.013 232.765 219.996 232.323 221.814 230.744C222.315 230.309 222.726 229.835 223.052 229.336C224.606 226.961 224.248 224.021 222.568 222.027C221.428 220.675 219.68 219.758 217.508 219.747C217.117 219.745 216.772 219.755 216.46 219.781C215.196 219.889 214.459 220.279 213.319 221.349C213.198 221.463 213.072 221.584 212.941 221.714ZM190.916 221.548C189.857 221.97 188.964 222.549 188.259 223.238C187.485 223.994 186.937 224.884 186.639 225.845C186.205 227.252 186.31 228.813 187.039 230.335L187.061 230.379C187.077 230.412 187.093 230.444 187.109 230.476C189.098 234.424 193.5 234.953 196.52 233.217C198.503 232.077 199.89 229.962 199.609 227.196C199.588 226.983 199.556 226.766 199.514 226.545C198.962 223.631 196.051 221.382 193.195 221.203C192.415 221.154 191.638 221.259 190.916 221.548ZM140.378 223.01C140.191 223.104 139.998 223.218 139.804 223.346C138.893 223.949 137.969 224.879 137.579 225.619C134.116 232.245 142.931 238.701 148.034 233.273C148.235 233.059 148.419 232.841 148.585 232.619C148.813 232.315 149.012 232.004 149.179 231.689C149.231 231.59 149.281 231.491 149.328 231.391C151.021 227.77 148.878 223.693 145.429 222.55C143.924 222.051 142.171 222.111 140.378 223.01ZM164.931 222.94C163.678 223.613 162.785 224.755 162.283 226.075C161.683 227.651 161.642 229.479 162.217 231.056C162.535 231.932 163.044 232.73 163.752 233.365C164.388 233.935 165.102 234.346 165.854 234.612C168.118 235.414 170.726 234.906 172.555 233.45C173.666 232.566 174.49 231.331 174.774 229.827C174.924 229.041 174.925 228.281 174.803 227.564C174.183 223.92 170.375 221.406 166.621 222.295C166.052 222.429 165.485 222.642 164.931 222.94ZM241.96 252.39C240.653 253.407 239.938 254.789 239.716 256.244C239.367 258.538 240.245 261.013 241.968 262.539C242.991 263.445 244.311 264.016 245.849 264.016C247.465 264.016 248.858 263.52 249.949 262.712C251.773 261.362 252.755 259.14 252.535 256.896C252.397 255.488 251.784 254.071 250.607 252.856C249.251 251.455 246.953 250.883 244.857 251.202C243.789 251.364 242.773 251.758 241.96 252.39ZM117.098 253.555C116.895 253.712 116.687 253.915 116.483 254.15C115.836 254.892 115.23 255.943 114.993 256.803C114.633 258.092 114.634 259.285 114.903 260.343C115.118 261.191 115.504 261.952 116.013 262.607C116.848 263.681 118.011 264.472 119.293 264.89C121.42 265.586 123.868 265.259 125.665 263.515C126.174 263.02 126.63 262.412 127.012 261.681C128.28 259.258 127.829 256.806 126.483 254.997C124.45 252.265 120.373 251.007 117.098 253.555ZM218.737 253.101C216.188 254.567 215.157 256.998 215.353 259.298C215.414 260.01 215.593 260.709 215.879 261.363C216.332 262.395 217.057 263.314 218.019 263.992C219.066 264.729 220.394 265.181 221.959 265.181C222.769 265.181 223.506 265.066 224.168 264.86C227.003 263.972 228.468 261.385 228.472 258.808C228.478 255.87 226.579 252.946 222.64 252.578C221.969 252.516 221.27 252.527 220.631 252.597C219.85 252.683 219.162 252.859 218.737 253.101ZM144.632 253.587C139.649 254.979 138.528 261.397 142.667 264.843C144.793 266.612 147.367 266.787 149.88 265.336L149.917 265.315C149.954 265.293 149.992 265.27 150.029 265.248C152.193 263.943 153.104 261.955 153.083 259.974C153.064 258.225 152.318 256.482 151.065 255.218C150.612 254.762 150.094 254.369 149.521 254.06C148.164 253.329 146.494 253.071 144.65 253.583L144.632 253.587ZM195.038 253.594C194.855 253.666 194.679 253.744 194.508 253.827C191.68 255.192 190.314 257.887 190.56 260.455C190.743 262.352 191.806 264.181 193.811 265.353C193.984 265.454 194.159 265.546 194.335 265.63C196.565 266.685 199 266.33 200.836 265.111C202.865 263.764 204.163 261.364 203.649 258.648C203.531 258.026 203.309 257.434 203.007 256.886C202.141 255.322 200.614 254.113 198.937 253.562C197.647 253.137 196.269 253.102 195.038 253.594ZM169.71 253.938C168.213 254.478 167.124 255.478 166.437 256.687C166.341 256.855 166.254 257.027 166.174 257.203C164.758 260.312 165.774 264.48 169.132 265.957C169.406 266.078 169.698 266.181 170.004 266.263C172.494 266.934 175.205 266.064 176.972 264.029L177.025 263.968C178.711 261.986 178.823 259.594 177.954 257.6C177.181 255.833 175.638 254.38 173.732 253.805C172.505 253.434 171.128 253.429 169.71 253.938ZM120.977 282.679C120.078 283.037 119.275 283.78 118.665 284.718C117.801 286.049 117.326 287.773 117.519 289.351C117.519 289.355 117.519 289.358 117.52 289.362C118.375 296.275 128.274 296.99 130.305 290.291C130.906 288.302 130.502 286.426 129.475 284.975C128.067 282.984 125.483 281.792 122.714 282.207C122.14 282.293 121.558 282.448 120.977 282.679ZM146.927 284.097C143.448 285.594 142.044 290.949 144.364 293.867C144.779 294.389 145.235 294.828 145.72 295.19C147.781 296.727 150.359 296.86 152.438 295.92C152.826 295.745 153.196 295.532 153.541 295.284C154.231 294.792 154.826 294.16 155.274 293.405C155.834 292.461 156.164 291.326 156.164 290.033C156.164 288.922 155.941 287.913 155.543 287.037C154.45 284.633 152.037 283.235 149.294 283.483C148.524 283.552 147.727 283.753 146.927 284.097ZM172.131 285.224C171.819 285.395 171.533 285.589 171.272 285.802C169.194 287.495 168.74 290.391 169.518 292.844C170.28 295.25 172.228 297.23 174.991 297.23C175.06 297.23 175.127 297.232 175.19 297.236C175.766 297.278 176.092 297.498 175.927 297.76C175.747 298.053 177.008 297.37 178.735 296.247C180.73 294.946 181.724 293.23 181.958 291.503C182.009 291.127 182.024 290.752 182.006 290.381C181.957 289.399 181.678 288.443 181.212 287.589C179.67 284.763 176.091 283.053 172.131 285.224Z" fill="#F3C37A"/>
<path d="M208.574 188.123C208.373 188.302 208.187 188.484 208.016 188.669C207.159 189.603 206.677 190.635 206.482 191.926C206.475 191.969 206.469 192.013 206.463 192.057L206.15 194.387L208.306 192.057C212.201 187.839 212.981 186.565 211.654 186.521C211.63 186.52 211.604 186.52 211.579 186.52C211.503 186.52 211.419 186.529 211.326 186.547C210.61 186.687 209.449 187.342 208.574 188.123Z" fill="#D9BBA1"/>
<path d="M211.94 192.249L207.935 197.3L209.207 198.322C209.432 198.502 209.662 198.662 209.894 198.802C210.374 199.09 210.865 199.294 211.362 199.425C214.239 200.178 217.265 198.423 218.685 195.85C219.745 193.928 219.91 191.551 218.45 189.42L218.43 189.39C218.417 189.37 218.404 189.35 218.391 189.331C216.525 186.621 216.294 186.761 211.94 192.249Z" fill="#D9BBA1"/>
<path d="M161.326 190.93C160.153 191.558 159.337 192.441 158.827 193.447C157.696 195.68 158.078 198.525 159.456 200.577C160.789 202.563 163.054 203.806 165.782 203.031L166.929 202.706L167.593 202.518L167.422 196.706C167.316 193.104 166.989 190.732 166.567 190.467C166.328 190.316 166.026 190.209 165.684 190.143C164.457 189.907 162.692 190.196 161.326 190.93Z" fill="#D9BBA1"/>
<path d="M170.401 196.719C170.395 199.653 170.485 199.966 170.966 198.667C171.065 198.401 171.138 198.117 171.184 197.82C171.3 197.076 171.251 196.249 171.038 195.411C171.018 195.33 170.996 195.25 170.973 195.17C170.453 193.385 170.404 193.513 170.401 196.719Z" fill="#D9BBA1"/>
<path fill-rule="evenodd" clip-rule="evenodd" d="M217.418 124.163C217.418 124.795 218.067 125.734 218.86 126.248C219.192 126.463 219.487 126.698 219.747 126.948C220.003 127.194 220.225 127.455 220.415 127.728C221.157 128.795 221.411 130.041 221.256 131.251C220.914 133.919 218.585 136.411 215.12 136.411C213.69 136.411 213.296 136.664 213.296 137.577C213.296 138.535 213.687 138.742 215.504 138.739C216.071 138.739 216.623 138.676 217.156 138.558C221.481 137.602 224.48 133.013 223.25 128.601C223.193 128.396 223.125 128.192 223.046 127.989C221.692 124.457 217.418 121.354 217.418 124.163ZM147.772 129.236C147.205 129.384 146.74 129.741 146.74 130.035C146.74 130.054 146.74 130.073 146.743 130.092C146.778 130.34 147.054 130.526 147.917 130.765C148.566 130.944 149.548 131.153 151.01 131.44C151.765 131.586 152.042 131.261 152.042 130.239C152.042 128.812 150.665 128.489 147.772 129.236ZM143.554 132.2C142.421 133.683 142.009 135.484 142.155 137.263C142.38 139.992 143.915 142.673 146.182 144.097C147.24 144.761 148.457 145.151 149.774 145.144C151.053 145.137 151.961 145.02 152.55 144.763C153.28 144.442 153.518 143.908 153.362 143.101C153.164 142.086 152.97 141.871 152.337 142.203C152.257 142.244 152.169 142.295 152.075 142.354C151.007 143.013 149.899 143.14 148.875 142.883C146.675 142.332 144.851 140.016 144.586 137.408C144.47 136.248 144.661 135.031 145.265 133.885C145.389 133.65 145.488 133.424 145.564 133.211C145.749 132.691 145.798 132.245 145.743 131.903C145.667 131.429 145.393 131.155 145.009 131.166C144.611 131.177 144.094 131.491 143.554 132.2ZM239.346 143.404C239.346 144.26 239.418 144.731 239.518 144.655C239.549 144.631 239.583 144.555 239.617 144.423C239.766 143.86 239.766 142.945 239.617 142.382C239.553 142.143 239.495 142.09 239.448 142.195C239.386 142.337 239.346 142.761 239.346 143.404ZM219.396 177.647C218.682 178.709 217.969 179.747 217.257 180.759C212.839 187.043 208.466 192.371 204.267 196.726C195.438 205.884 187.384 210.74 181.323 211.123C177.288 211.378 174.138 209.651 172.228 205.894C171.472 204.406 170.911 202.598 170.567 200.47C170.094 197.544 170.031 194.01 170.437 189.862C170.607 188.122 170.859 186.274 171.198 184.317C171.253 184.005 171.304 183.704 171.351 183.416C171.855 180.367 171.987 178.676 171.773 177.976C171.732 177.845 171.679 177.748 171.615 177.685C171.447 177.518 171.269 177.479 171.088 177.553C170.24 177.898 169.286 180.717 168.565 184.402C168.38 185.342 168.211 186.338 168.064 187.364C167.578 190.729 167.315 194.413 167.471 197.479C168.008 208.064 173.829 213.99 181.7 213.934C185.789 213.904 190.428 212.262 195.171 208.821C196.595 207.786 198.125 206.53 199.719 205.105C205.501 199.932 212.109 192.513 217.511 185.211C220.157 181.634 222.515 178.085 224.345 174.843L225.29 173.161L225.455 172.867L225.506 172.777L224.388 172.687L224.16 172.669C223.28 172.596 222.51 173.211 220.788 175.623C220.382 176.192 219.922 176.862 219.396 177.647Z" fill="#C47CF3"/>
<path d="M184.932 53.714C156.344 57.204 137.231 75.2255 137.269 98.6566C137.283 105.512 137.305 105.675 139.506 113.798L141.033 119.447L142.208 117.096C142.854 115.806 144.263 114.185 145.342 113.491C146.009 113.063 146.577 112.535 146.897 112.084C146.891 111.908 146.985 111.662 147.168 111.376C147.135 111.125 147.523 110.718 148.168 110.237C148.629 109.819 149.198 109.393 149.851 109.021C151.388 108.143 152.596 107.557 154.056 107.062C155.423 106.497 156.65 106.113 157.346 106.113C157.428 106.113 157.509 106.112 157.59 106.11C158.145 105.986 158.746 105.858 159.404 105.723C160.354 105.527 160.942 105.348 161.314 105.068C161.415 104.982 161.506 104.892 161.586 104.796C161.789 104.524 161.884 104.169 161.942 103.676C162.005 103.135 161.946 102.675 161.786 102.293C160.113 98.9666 151.078 101.577 147.907 106.896C147.889 106.926 147.871 106.957 147.853 106.987C145.904 110.343 145.926 110.41 146.142 101.45C146.143 101.437 146.143 101.422 146.143 101.408C146.306 95.0824 148.18 91.3087 153.369 88.4522C156.825 86.3425 161.616 84.8441 167.945 83.7928C176.13 82.4292 181.504 83.7068 182.201 87.1809C183.289 92.599 184.354 94.3971 186.685 94.7544C187.852 94.9334 188.923 95.1164 189.907 95.3088C193.738 96.0588 196.257 96.9531 198.057 98.3104C199.263 99.2197 200.145 100.337 200.88 101.758C201.022 102.031 201.158 102.314 201.289 102.609C201.299 102.632 201.309 102.655 201.319 102.677C201.637 103.37 202.047 104.021 202.434 104.479C202.958 104.934 203.67 105.1 205.007 105.292C206.489 105.502 208.845 106.052 210.246 106.515L212.789 107.351L213.687 106.534C214.758 104.934 216.293 103.71 218.302 102.843C222.731 100.93 225.743 103.561 226.614 107.953C227.298 111.195 226.796 115.445 224.634 119.679C224.235 120.467 223.781 121.248 223.269 122.014C223.135 122.214 223.01 122.4 222.893 122.571C221.365 124.871 221.425 124.987 222.41 126.641C222.673 127.079 222.883 127.53 223.046 127.988C223.124 128.192 223.192 128.396 223.25 128.601C224.479 133.013 221.48 137.602 217.156 138.558C216.626 138.676 216.073 138.739 215.503 138.739C213.687 138.742 213.296 138.534 213.296 137.577C213.296 136.664 213.69 136.411 215.119 136.411C218.584 136.411 220.914 133.919 221.255 131.251C221.293 130.581 221.202 129.88 220.964 129.169C220.764 128.565 220.592 128.088 220.414 127.728C220.224 127.455 220.002 127.194 219.747 126.947C219.231 126.71 218.496 126.996 217.167 127.709C216.183 128.6 214.73 129.418 213.66 129.418C213.64 129.418 213.617 129.385 213.591 129.321L213.589 129.32C213.349 129.082 212.734 123.846 212.303 119.095C212.21 118.319 212.118 117.578 212.034 116.924C211.826 115.306 211.766 113.821 211.855 112.465C211.854 112.427 211.854 112.39 211.853 112.355L211.824 108.983L208.919 108.13C207.321 107.661 205.091 107.277 203.968 107.277H202.485L201.922 107.383L201.923 107.403L202.296 119.421C202.419 123.399 202.562 126.872 202.739 129.891C203.095 135.954 203.588 140.182 204.325 142.99C205.233 146.447 206.512 147.75 208.364 147.671C208.768 147.655 209.201 147.571 209.661 147.431C209.863 147.368 210.07 147.498 210.289 147.833C210.655 148.39 211.054 149.517 211.514 151.269C212.156 153.715 212.918 156.04 213.829 158.307C215.071 161.374 216.61 164.374 218.58 167.611L220.366 170.547L221.368 172.177L224.388 172.687L225.506 172.777L225.454 172.867L227.416 173.198C230.393 173.702 234.242 174.43 236.497 174.911C236.76 174.968 237.002 175.021 237.219 175.07C239.691 175.628 240.765 175.72 240.94 175.37C240.945 175.241 240.947 175.078 240.947 174.882C240.88 173.719 240.64 170.125 240.359 166.129C240.271 164.868 240.169 162.877 240.063 160.384C239.987 160.312 239.936 159.863 239.936 159.137C239.936 158.755 239.95 158.45 239.975 158.237C239.858 155.306 239.739 151.875 239.624 148.215C239.483 148.923 239.365 148.464 239.359 147.191C239.353 146.11 239.435 145.52 239.548 145.693C239.537 145.348 239.527 145.002 239.518 144.654C239.418 144.731 239.346 144.26 239.346 143.404C239.346 142.761 239.386 142.337 239.448 142.195C239.371 139.402 239.3 136.564 239.239 133.79C238.697 109.254 238.142 102.964 235.66 93.2922C227.985 63.389 211.436 50.4762 184.932 53.714Z" fill="#212121"/>
<path d="M171.027 103.085C175.152 102.517 177.447 102.76 183.776 104.424C185.319 104.829 186.727 105.143 187.568 105.279C188.746 105.387 188.233 104.778 186.409 103.218C185.272 102.299 183.82 101.258 182.531 100.464C181.085 99.6467 179.606 99.0299 178.143 98.6238C175.546 98.026 172.69 98.0512 170.444 98.6056C170.073 98.7279 169.711 98.8706 169.359 99.0331C168.173 99.5812 167.331 100.143 166.812 100.67C166.705 100.828 166.617 100.994 166.55 101.166C166.338 101.714 166.287 102.149 166.413 102.48C166.983 103.121 168.563 103.424 171.027 103.085Z" fill="#212121"/>
<path d="M172.081 114.428C171.256 115.718 170.956 117.355 171.531 118.45C171.726 118.734 171.993 118.955 172.322 119.113C173.508 119.57 175.615 119.165 177.511 118.338C178.045 118.073 178.598 117.755 179.164 117.384C180.703 116.378 181.477 115.275 181.466 114.251C181.218 112.626 179.246 111.729 176.97 111.886C175.108 112.181 173.132 113.135 172.081 114.428Z" fill="#212121"/>
<path d="M151.709 117.592C151.451 117.895 151.267 118.222 151.151 118.557C150.525 120.598 152.3 122.131 154.757 122.419C154.855 122.424 154.956 122.425 155.057 122.425C156.312 122.425 158.132 121.984 159.511 121.454L159.534 121.442C160.138 121.129 160.554 120.915 160.839 120.83C161.02 120.721 161.167 120.614 161.273 120.51C161.072 119.584 160.732 118.695 160.261 117.873C159.594 116.904 158.848 116.017 158.578 116.017C158.555 116.017 158.529 116.017 158.501 116.015C158.432 116.039 158.307 116.029 158.112 115.975C157.83 115.933 157.505 115.865 157.242 115.787C156.912 115.689 156.027 115.763 155.072 115.949C153.757 116.275 152.405 116.902 151.709 117.592Z" fill="#212121"/>
<path d="M144.586 137.407C145.043 139.824 146.854 142.163 148.874 142.883C149.899 143.14 151.007 143.013 152.075 142.354C152.169 142.295 152.257 142.244 152.337 142.202C152.629 141.727 152.696 140.303 152.595 138.793C152.075 136.232 151.516 134.611 151.007 134.227C150.783 134.056 150.638 133.925 150.587 133.823C150.537 133.8 150.486 133.778 150.433 133.756C149.372 133.681 148.35 133.432 147.417 132.992C146.563 132.902 145.845 132.953 145.564 133.211C145.488 133.424 145.388 133.649 145.265 133.885C144.661 135.03 144.469 136.248 144.586 137.407Z" fill="#212121"/>
<path d="M144.974 144.435C144.974 144.952 145.377 150.11 145.871 155.898C146.362 161.684 146.974 170.28 147.226 174.996C147.785 185.383 146.93 184.591 155.676 182.813C159.669 182.002 164.152 181.169 165.637 180.964C168.823 180.523 169.297 180.265 170.265 178.448C170.549 177.915 170.827 177.619 171.088 177.553C171.269 177.479 171.447 177.518 171.615 177.685C171.679 177.748 171.732 177.845 171.773 177.976C171.944 178.26 172.1 178.68 172.234 179.236C172.392 179.878 172.55 178.937 172.586 177.142C172.613 175.869 172.633 175.09 172.793 174.55L172.831 173.802L175.116 172.78C175.239 172.726 175.361 172.669 175.485 172.61C177.901 171.451 180.518 169.559 183.04 167.241C186.929 163.657 190.608 159.043 192.933 154.567C193.454 153.564 193.694 152.899 193.651 152.566C193.529 152.237 192.872 152.481 191.56 153.258C181.839 160.001 172.61 161.678 165.543 158.836C160.542 157.099 156.654 153.263 154.566 147.449L153.552 144.627L152.55 144.762C151.961 145.019 151.053 145.137 149.773 145.144C148.456 145.151 147.24 144.761 146.182 144.097C145.093 143.591 144.974 143.697 144.974 144.435Z" fill="#212121"/>
<path d="M145.336 116.043C142.15 119.791 141.908 124.888 144.758 128.237C146.653 130.467 147.318 130.071 146.546 127.249C145.55 125.642 145.226 123.089 145.761 120.469C145.965 119.298 146.383 118.164 147.021 116.978L147.033 116.955C147.941 115.258 148.085 114.309 147.66 114.215C147.093 114.507 146.556 114.854 146.06 115.249C145.835 115.476 145.594 115.74 145.336 116.043Z" fill="#212121"/>
<path fill-rule="evenodd" clip-rule="evenodd" d="M144.267 192.147C145.856 193.382 146.661 195.218 146.712 197.077C146.73 197.306 146.739 197.539 146.739 197.775C146.739 200.145 145.1 202.402 142.647 203.408C135.278 206.425 130.085 195.857 136.911 191.737C136.917 191.734 136.922 191.731 136.928 191.727C138.719 190.651 140.187 190.389 141.868 190.917C142.747 191.141 143.563 191.562 144.267 192.147ZM221.326 220.766C221.81 221.154 222.223 221.578 222.567 222.027C224.247 224.021 224.606 226.961 223.051 229.336C221.979 231.201 219.981 232.551 217.34 232.551C216.966 232.551 216.599 232.517 216.241 232.451C212.374 231.767 209.509 227.483 211.548 223.57C211.968 222.717 212.583 221.963 213.319 221.349C214.458 220.279 215.195 219.889 216.459 219.781C218.146 219.396 219.923 219.643 221.326 220.766ZM197.532 223.103C198.861 224.337 199.498 225.773 199.609 227.196C199.889 229.962 198.502 232.077 196.52 233.217C194.65 234.443 192.16 234.751 189.689 233.308C188.528 232.629 187.658 231.62 187.109 230.476C187.086 230.43 187.062 230.383 187.039 230.335C186.31 228.813 186.205 227.252 186.639 225.845C186.897 224.908 187.387 224.045 188.127 223.359C188.171 223.318 188.215 223.278 188.258 223.238C188.964 222.549 189.856 221.97 190.915 221.548C191.638 221.259 192.415 221.154 193.195 221.203C194.715 221.24 196.208 221.872 197.532 223.103ZM147.485 223.643C149.912 225.782 150.552 228.789 149.327 231.391C149.281 231.491 149.23 231.59 149.179 231.689C149.008 232.006 148.811 232.317 148.584 232.619C148.417 232.842 148.233 233.061 148.033 233.273C142.931 238.701 134.116 232.245 137.579 225.619C138.077 224.669 138.866 223.901 139.804 223.346C139.998 223.218 140.19 223.104 140.378 223.01C142.17 222.111 143.924 222.051 145.428 222.55C146.19 222.764 146.896 223.125 147.485 223.643ZM171.818 223.164C173.581 224.226 174.55 225.852 174.802 227.564C174.925 228.281 174.924 229.041 174.774 229.827C174.489 231.331 173.665 232.566 172.554 233.45C171.841 234.051 170.97 234.522 169.953 234.805C168.491 235.211 167.081 235.095 165.854 234.612C165.102 234.346 164.387 233.935 163.751 233.365C163.044 232.73 162.535 231.932 162.216 231.056C161.581 229.551 161.515 227.788 162.282 226.075C162.784 224.755 163.677 223.613 164.93 222.94C165.485 222.642 166.051 222.429 166.62 222.295C168.269 221.875 170.111 222.133 171.818 223.164ZM252.534 256.897C252.78 259.132 251.877 261.382 249.949 262.712C248.857 263.52 247.465 264.016 245.849 264.016C244.311 264.016 242.99 263.445 241.967 262.539C240.23 261.146 239.229 258.848 239.716 256.244C239.937 254.789 240.653 253.407 241.96 252.39C242.772 251.758 243.788 251.364 244.856 251.202C246.883 250.797 249.08 251.277 250.606 252.856C251.784 254.071 252.396 255.488 252.534 256.897ZM126.483 254.997C128.819 257.909 127.98 261.465 125.665 263.515C123.868 265.259 121.419 265.586 119.293 264.89C118.858 264.759 118.419 264.583 117.978 264.357C117.197 263.958 116.555 263.393 116.013 262.607C115.503 261.952 115.117 261.191 114.903 260.343C114.844 260.18 114.787 260.01 114.731 259.836C113.996 257.54 114.872 255.501 116.483 254.15C116.686 253.915 116.895 253.712 117.097 253.555C120.372 251.007 124.449 252.265 126.483 254.997ZM226.765 254.353C227.942 255.518 228.505 257.161 228.472 258.808C228.468 261.385 227.003 263.972 224.167 264.86C221.971 265.71 219.705 265.233 218.019 263.992C217.057 263.314 216.332 262.395 215.879 261.363C215.589 260.719 215.405 260.024 215.352 259.298C215.157 256.998 216.188 254.567 218.737 253.101C219.162 252.859 219.849 252.683 220.63 252.598C222.786 252.221 225.177 252.783 226.765 254.353ZM151.064 255.218C152.59 256.653 153.169 258.346 153.082 259.974C153.104 261.955 152.192 263.943 150.028 265.248C149.979 265.278 149.929 265.308 149.879 265.336C147.828 266.667 145.105 266.872 142.666 264.843C138.528 261.397 139.649 254.979 144.632 253.587C144.637 253.586 144.644 253.584 144.649 253.583C146.478 253.075 148.044 253.22 149.521 254.06C150.094 254.369 150.611 254.762 151.064 255.218ZM201.657 255.149C202.232 255.683 202.678 256.27 203.006 256.886C203.309 257.434 203.531 258.026 203.648 258.648C204.163 261.364 202.864 263.764 200.835 265.111C199.73 265.877 198.349 266.346 196.767 266.346C196.001 266.346 195.15 266.08 194.334 265.63C194.159 265.547 193.984 265.454 193.811 265.353C191.805 264.181 190.742 262.352 190.56 260.455C190.114 257.477 191.962 254.9 194.507 253.827C194.678 253.744 194.854 253.666 195.038 253.594C196.268 253.102 197.646 253.137 198.936 253.562C199.881 253.844 200.808 254.36 201.657 255.149ZM174.678 254.098C176.242 254.687 177.375 256.024 177.953 257.6C178.822 259.594 178.71 261.986 177.024 263.968C177.007 263.988 176.989 264.009 176.971 264.029C174.706 266.642 171.547 267.097 169.132 265.957C165.774 264.48 164.758 260.312 166.174 257.203C166.254 257.026 166.342 256.854 166.437 256.688C167.123 255.478 168.212 254.478 169.71 253.938C171.127 253.429 172.505 253.434 173.732 253.805C174.045 253.881 174.361 253.979 174.678 254.098ZM127.254 282.929C128.16 283.391 128.916 284.112 129.475 284.975C130.502 286.426 130.906 288.303 130.304 290.292C128.274 296.99 118.374 296.275 117.52 289.362C117.519 289.359 117.519 289.355 117.519 289.351C117.298 287.553 117.763 285.954 118.665 284.718C119.275 283.78 120.078 283.037 120.977 282.679C121.558 282.448 122.139 282.293 122.713 282.207C124.144 281.947 125.723 282.145 127.254 282.929ZM155.543 287.038C156.54 288.977 156.518 291.389 155.274 293.405C154.825 294.16 154.231 294.792 153.541 295.285C153.19 295.538 152.82 295.75 152.438 295.92C150.359 296.86 147.781 296.727 145.719 295.19C144.235 294.135 143.208 292.483 143.208 290.422C143.208 286.357 145.894 283.583 149.294 283.483C152.036 283.235 154.449 284.633 155.543 287.038Z" fill="#D9BBA1"/>
<path d="M194.125 198.04C194.125 201.847 191.006 204.263 187.117 204.263C183.229 204.263 180.077 201.177 180.077 197.369C179.294 191.816 183.196 193.444 187.084 193.444C190.973 193.444 195.331 192.295 194.125 198.04Z" fill="#D9BBA1"/>
<path d="M314.518 266.347C313.076 263.216 299.929 238.802 296.4 232.701C295.094 230.444 292.936 226.666 289.357 220.369C287.586 217.253 285.64 213.824 283.664 210.338L282.37 208.056C281.187 205.968 279.916 203.726 278.551 201.318C277.218 198.963 276.117 197.08 275.143 195.53C275.109 195.481 275.082 195.443 275.06 195.418C274.996 195.34 274.955 195.27 274.94 195.208C273.908 193.583 273.015 192.335 272.128 191.292C271.141 190.193 269.811 188.956 268.667 188.075C268.443 187.908 268.212 187.741 267.974 187.571L267.935 187.544C266.404 186.513 264.862 185.238 264.509 184.716C264.39 184.539 264.138 184.305 263.797 184.048C263.107 183.55 262.04 182.936 260.847 182.339C259.997 181.939 259.295 181.611 258.705 181.353C258.234 181.152 257.765 180.968 257.314 180.803C256.365 180.497 255.845 180.548 255.325 180.921C255.038 181.144 254.712 181.473 254.295 181.932C253.241 183.095 251.999 183.772 250.152 184.193C248.7 184.526 246.536 185.258 245.343 185.825L243.173 186.854C243.173 186.854 240.625 188.075 239.539 189.487C238.453 190.899 235.71 194.24 235.71 194.24L234.566 197.151C232.989 201.18 233.019 206.584 234.644 210.608C235.946 213.844 238.442 217.693 239.905 220.072L240.27 221.092C241.733 222.79 242.871 224.531 253.194 241.477C253.781 242.437 256.081 246.031 258.307 249.465L262.354 255.709L262.311 255.872C262.589 256.375 263.698 258.144 265.083 260.288C265.218 260.495 265.356 260.71 265.499 260.93L265.631 261.135C267.871 264.578 269.82 267.655 271.459 270.331C271.676 270.678 277.845 277.657 278.06 278.003C281.837 284.074 321.07 278.164 320.315 278.397C317.762 273.149 315.154 267.728 314.518 266.347Z" fill="#F3C37A"/>
<path d="M114.993 217.694C103.906 253.635 79.499 298.902 85.48 299.691C100.791 305.054 112.046 306.26 115.761 306.193C103.238 289.994 102.505 283.953 110.177 260.229C112.765 252.217 115.458 243.111 116.158 239.991C116.858 236.872 117.671 234.464 117.962 234.643C118.256 234.821 119.411 234.665 120.531 234.301C126.209 232.449 126.538 224.556 121.035 222.282C119.433 221.621 119.098 221.203 119.327 220.159C119.482 219.444 119.898 216.372 120.247 213.329C120.99 206.879 121.196 201.179 121.196 201.179C121.196 201.179 118.033 207.843 114.993 217.694Z" fill="#F3C37A"/>
<path d="M103.071 48.4696C103.071 48.4696 105.801 33.1831 116.43 34.8245C127.06 36.4659 111.641 65.4589 111.641 65.4589C111.641 65.4589 85.3016 55.7716 89.5274 49.2673C93.7532 42.7553 103.071 48.4696 103.071 48.4696Z" fill="#0D324D"/>
<path d="M287.545 78.9917C287.545 78.9917 308.294 62.8743 320.172 76.5801C332.048 90.2932 279.468 109.624 279.468 109.624C279.468 109.624 256.372 68.6337 269.159 65.1361C281.946 61.6384 287.545 78.9917 287.545 78.9917Z" fill="#0D324D"/>
<path d="M63.6784 94.1904C63.6784 94.1904 59.9139 79.2137 71.5836 76.6452C83.2545 74.0781 79.8285 106.393 79.8285 106.393C79.8285 106.393 48.4925 107.636 50.0509 100.094C51.6093 92.5452 63.6784 94.1904 63.6784 94.1904Z" fill="#0D324D"/>
</g>
</g>
<path d="M324.311 278.397C291.635 288.429 265.258 297.824 232.39 300.953C212.865 302.812 193.938 303.634 176.386 303.634C138.598 303.634 107.542 293.314 79.499 279.35L111.949 279.825C114.825 279.825 114.692 279.835 115.235 279.825L324.311 278.397Z" fill="#0D324D"/>
</g>
</g>
</g>
<defs>
<clipPath id="clip0_148_378">
<rect width="399" height="305" fill="white"/>
</clipPath>
<clipPath id="clip1_148_378">
<rect width="409" height="306" fill="white"/>
</clipPath>
</defs>
</svg>
