<svg width="1448" height="1001" viewBox="0 0 1448 1001" fill="none" xmlns="http://www.w3.org/2000/svg">
<path d="M1448 643.239C1448 784.671 1325.04 874.015 1161.92 928.058C1124.71 940.394 1085.39 950.882 1044.98 959.733C958.702 978.633 867.366 990.054 780.585 995.95C729.031 999.451 679.059 1001 632.716 1001C532.941 1001 446.603 986.042 372.563 959.733C107.115 865.374 0 624.814 0 403.118C0 119.584 307.741 36.593 632.716 6.14897C1290.55 -55.4782 1448 359.722 1448 643.239" fill="white"/>
<mask id="mask0_148_375" style="mask-type:luminance" maskUnits="userSpaceOnUse" x="67" y="45" width="1315" height="845">
<path d="M1381.5 45.9688H67.3789V889.523H1381.5V45.9688Z" fill="white"/>
</mask>
<g mask="url(#mask0_148_375)">
<path d="M394.24 551.878C360.122 549.571 273.481 553.725 268.122 598.378C266.052 615.625 288.585 626.676 302.961 630.725C322.77 636.288 344.197 632.54 364.177 629.931C391.653 626.35 419.404 622.178 446.39 616.062C454.68 614.186 470.519 608.266 474.113 600.31C478.359 590.902 468.814 577.679 461.491 571.618C443.993 557.152 416.621 553.386 394.24 551.878Z" fill="#38669E"/>
<path d="M349.07 624.018C349.779 624.018 350.46 623.636 350.785 622.99C351.234 622.098 350.831 621.034 349.883 620.603C343.942 617.957 334.859 617.04 325.249 616.08C308.148 614.364 288.77 612.419 285.448 600.027C285.189 599.061 284.161 598.47 283.144 598.729C282.129 598.969 281.514 599.941 281.768 600.901C285.742 615.711 306.518 617.797 324.846 619.637C334.127 620.566 342.901 621.446 348.258 623.845C348.521 623.963 348.797 624.018 349.07 624.018Z" fill="#1D1E32"/>
<path d="M336.712 589.142C337.07 589.142 337.438 589.037 337.757 588.841C338.629 588.287 338.87 587.185 338.288 586.354C335.913 582.983 335.24 580.041 336.287 577.617C337.568 574.657 341.453 572.381 347.224 571.212C348.251 571.003 348.898 570.061 348.679 569.089C348.461 568.123 347.462 567.514 346.429 567.711C339.39 569.138 334.542 572.178 332.77 576.276C331.711 578.737 331.253 582.829 335.131 588.342C335.496 588.859 336.097 589.142 336.712 589.142Z" fill="#1D1E32"/>
<path d="M674.578 720.093C670.905 709.257 657.315 692.28 647.946 683.961C591.125 633.537 514.041 608.118 488.629 607.564C483.708 605.65 442.158 617.711 470.641 651.91C485.721 668.567 622.816 728.798 635.959 739.271C635.959 739.271 665.392 748.402 674.578 720.093Z" fill="#F79883"/>
<path d="M615.042 766.356C696.454 772.503 688.312 707.227 688.312 707.227C626.603 658.833 595.007 632.786 512.068 604.771C488.811 595.16 462.856 600.458 462.856 600.458L421.491 629.076C421.491 629.076 411.932 654.218 452.741 682.005C452.741 682.005 507.6 731.715 615.042 766.356Z" fill="#38669E"/>
<path d="M371.214 528.903C370.162 526.62 369.25 524.626 368.518 523.137C356.242 498.242 341.913 435.825 373.074 423.752C410.425 409.28 411.364 467.913 414.114 484.096C417.292 502.808 419.619 522.99 412.105 540.926C409.278 547.688 402.016 558.075 393.809 557.693C384.718 557.281 376.255 539.794 371.214 528.903Z" fill="#17272E"/>
<path d="M358.9 495.356C358.738 505.754 364.865 517.55 374.783 521.864C388.244 527.733 393.431 516.092 393.435 504.69C393.444 495.51 389.176 479.678 378.14 476.423C367.731 473.34 359.035 486.815 358.9 495.356Z" fill="#F8A18F"/>
<path d="M380.658 519.637L446.715 519.686L446.651 597.16L380.592 597.111L380.658 519.637Z" fill="#F8A18F"/>
<path d="M400.786 562.542C394.163 549.423 390.22 536.158 391.334 519.649L446.715 519.686L446.655 587.026C429.264 584.502 407.847 576.516 400.786 562.542Z" fill="#F57C6E"/>
<path d="M476.293 608.74L446.597 587.844H380.578L344.938 608.74H476.293Z" fill="#F8A18F"/>
<path d="M531.541 814.885C532.305 853.342 536.268 883.119 537.026 921.597C537.474 944.259 541.898 1020.39 534.438 1048.97C526.703 1078.61 516.106 1026.33 490.196 1020.3C484.189 1018.9 478.32 1016.96 472.293 1015.65C449.302 1010.69 432.939 1030.33 411.669 1036.23C390.884 1041.98 369.499 1050.81 348.39 1054.04C325.957 1057.49 300.497 1051.65 278.849 1045.47C257.039 1039.23 254.696 1033.3 258.742 1014.57C260.646 1005.73 260.772 996.195 261.762 987.228C264.68 960.81 267.601 934.386 270.514 907.976C274.375 873.027 272.984 832.628 282.599 798.593L268.147 655.516C263.083 626.898 289.699 617.607 289.699 617.607L375.541 583.653C412.908 610.204 446.715 583.284 446.715 583.284L490.346 601.559C490.346 601.559 513.107 613.183 517.846 649.849L531.541 814.885Z" fill="#38669E"/>
<path d="M536.839 1004.43C536.846 1004.43 536.853 1004.43 536.856 1004.43C537.907 1004.42 538.748 1003.61 538.735 1002.62C538.558 986.076 538.529 969.464 538.503 954.18C538.465 932.342 538.431 913.481 537.993 901.059C537.561 888.679 537.244 878.199 536.965 868.918C536.002 837.057 535.474 819.511 532.179 788.345C530.624 773.654 529.543 759.399 528.398 744.3C526.411 718.056 524.352 690.909 519.539 657.423C519.399 656.445 518.436 655.731 517.404 655.897C516.365 656.027 515.639 656.931 515.778 657.909C520.578 691.284 522.632 718.364 524.62 744.559C525.76 759.679 526.845 773.961 528.405 788.699C531.687 819.743 532.216 837.241 533.176 869.014C533.454 878.301 533.767 888.788 534.204 901.175C534.637 913.536 534.672 932.376 534.711 954.187C534.74 969.477 534.769 986.096 534.943 1002.65C534.955 1003.64 535.802 1004.43 536.839 1004.43Z" fill="#1D1E32"/>
<path d="M317.277 970.165C317.557 970.165 317.844 970.11 318.118 969.981C359.429 950.684 387.931 919.102 394.356 885.537C394.545 884.563 393.858 883.629 392.825 883.459C391.784 883.295 390.809 883.929 390.622 884.897C383.308 923.129 347.501 952.265 316.433 966.772C315.496 967.215 315.109 968.291 315.575 969.177C315.907 969.804 316.579 970.165 317.277 970.165Z" fill="#1D1E32"/>
<path d="M276.813 1028.3C277.75 1028.3 278.565 1027.65 278.692 1026.75C280.105 1016.63 281.48 1007.51 282.776 998.926C285.809 978.846 288.427 961.498 289.933 941.445C293.596 892.685 294.537 860.449 295.222 836.92C295.961 811.614 296.452 794.893 299.541 775.255C299.694 774.274 298.981 773.361 297.939 773.224C296.9 773.068 295.944 773.756 295.789 774.73C292.663 794.586 292.174 811.382 291.431 836.818C290.746 860.326 289.804 892.508 286.152 941.186C284.652 961.109 282.041 978.403 279.022 998.429C277.724 1007.01 276.345 1016.14 274.93 1026.28C274.793 1027.27 275.526 1028.16 276.563 1028.29C276.647 1028.3 276.731 1028.3 276.813 1028.3Z" fill="#1D1E32"/>
<path d="M161.22 575.494C166.928 561.563 185.559 560.456 197.672 564.566C270.677 589.32 343.704 616.819 359.897 635.309C364.54 637.764 380.209 676.012 334.099 676.067C311.227 675.231 194.663 630.854 162.652 614.13C162.652 614.13 146.872 604.371 161.22 575.494Z" fill="#F8A18F"/>
<path d="M122.182 628.325C122.182 628.325 96.1122 530.472 189.108 554.765C276.81 589.714 377.514 628.621 377.514 628.621C400.662 642.065 400.349 677.944 400.349 677.944C400.349 677.944 371.681 752.647 305.568 729.923C305.568 729.923 172.913 687.032 122.182 628.325Z" fill="#38669E"/>
<path d="M121.556 592.49C79.7205 534.09 90.9643 482.342 87.5078 379.166L105.327 375.585C112.427 392.236 146.465 522.584 164.224 532.829C164.224 532.829 201.519 569.458 121.556 592.49Z" fill="#F8A18F"/>
<path d="M72.3469 346.357C70.5854 365.082 79.5314 380.372 86.7642 389.448C95.8427 398.186 101.852 395.109 109.232 391.067C114.36 388.248 115.634 385.418 117.501 380.914C118.523 376.914 121.769 371.561 121.769 371.561C128.812 357.624 133.253 349.022 133.253 349.022C133.253 349.022 138.486 340.925 135.182 338.457C129.888 334.525 124.341 343.89 124.341 343.89L119.498 349.976C116.847 353.557 116.401 349.01 116.401 349.01L114.58 340.906C109.804 327.849 121.877 305.144 122.528 305.101C105.343 305.797 100.808 333.984 100.808 333.984C100.808 333.984 101.408 318.496 111.9 303.594C111.9 303.594 115.25 292.038 103.629 300.351C103.629 300.351 88.5056 318.078 89.5559 336.851C89.5559 336.851 85.9213 323.684 95.647 305.883C95.647 305.883 94.8836 297.594 87.5922 303.2C87.5922 303.2 76.9165 328.28 80.3665 340.106C80.3665 340.106 77.2421 329.135 79.108 318.066C79.108 318.066 76.3078 313.31 72.512 318.374C72.512 318.374 69.4208 337.602 72.3469 346.357Z" fill="#F8A18F"/>
<path d="M80.3011 422.706C80.3011 422.706 80.1491 412.701 85.5616 406.24L84.9033 391.042C84.9033 391.042 104.895 393.294 116.671 386.734L118.878 400.462C118.878 400.462 127.736 400.241 133.077 416.572C133.077 416.572 155.193 524.251 189.108 554.765C189.108 554.765 155.303 644.625 122.182 628.325C122.182 628.325 75.9383 592.489 80.3011 422.706Z" fill="#38669E"/>
<path d="M297.661 776.782C298.279 776.782 298.883 776.495 299.248 775.984C312.261 757.423 355.247 694.249 361.938 660.321C362.114 659.386 366.036 637.567 350.422 617.853C349.794 617.059 348.609 616.893 347.77 617.483C346.926 618.074 346.76 619.2 347.383 619.987C361.985 638.428 358.244 659.466 358.205 659.675C353.781 682.115 330.557 724.855 296.081 774.008C295.507 774.833 295.744 775.937 296.618 776.488C296.941 776.686 297.305 776.782 297.661 776.782Z" fill="#1D1E32"/>
<path d="M460.132 437.166C479.041 443.756 476.911 460.665 480.617 476.816C482.137 483.456 485.143 489.787 487.002 496.193C490.558 488.957 490.115 466.277 489.671 458.419C486.906 409.618 466.878 381.603 483.801 424.435C487.745 434.397 452.897 406.16 441.803 404.382C426.004 401.835 432.003 414.215 437.693 429.117L460.132 437.166Z" fill="#17272E"/>
<path d="M386.509 523.636C392.824 538.632 401.453 550.943 416.411 559.626C431.047 568.117 446.185 572.467 460.326 561.472C471.58 552.716 478.875 539.948 482.974 527.076C492.417 497.449 485.263 456.431 465.304 432.539C443.382 406.308 401.004 412.117 384.606 441.362C371.251 465.181 376.318 499.423 386.509 523.636Z" fill="#F8A18F"/>
<path d="M375.097 512.689C375.926 512.689 376.692 512.166 376.928 511.372C380.314 499.971 377.721 489.172 370.755 485.695C369.826 485.24 368.673 485.566 368.184 486.446C367.692 487.319 368.047 488.409 368.977 488.87C374.197 491.473 376.08 500.937 373.266 510.406C372.979 511.36 373.57 512.351 374.581 512.621C374.755 512.664 374.929 512.689 375.097 512.689Z" fill="#F57C6E"/>
<path d="M365.042 498.167C365.295 498.167 365.548 498.112 365.793 498.014C368.677 496.851 372.474 496.193 374.442 497.349C375.335 497.872 376.507 497.62 377.063 496.783C377.618 495.941 377.351 494.833 376.459 494.309C373.112 492.329 367.977 493.233 364.29 494.716C363.327 495.109 362.881 496.162 363.294 497.072C363.603 497.755 364.305 498.167 365.042 498.167Z" fill="#F57C6E"/>
<path d="M410.239 502.936C410.382 505.275 415.053 506.936 420.675 506.628C426.294 506.327 430.739 504.185 430.597 501.841C430.458 499.497 425.782 497.842 420.161 498.15C414.539 498.451 410.098 500.592 410.239 502.936Z" fill="#F57C6E"/>
<path d="M460.416 502.936C460.554 505.275 465.232 506.936 470.854 506.628C476.467 506.321 480.913 504.185 480.775 501.841C480.63 499.497 475.959 497.842 470.335 498.15C464.713 498.451 460.271 500.592 460.416 502.936Z" fill="#F57C6E"/>
<path d="M447.419 512.098C451.543 512.098 456.16 511.022 458.062 508.449C458.836 507.403 459.806 505.207 457.571 502.29C442.877 483.123 446.828 479.758 449.708 477.29C450.395 476.712 451.032 476.152 451.515 475.542C452.145 474.749 451.974 473.623 451.134 473.032C450.293 472.435 449.1 472.589 448.469 473.395C448.124 473.826 447.652 474.207 447.158 474.632C442.228 478.847 439.075 484.286 454.488 504.4C455.473 505.681 455.104 506.185 454.943 506.394C453.593 508.228 447.627 509.127 443.741 508.105C442.723 507.84 441.68 508.388 441.393 509.348C441.112 510.307 441.706 511.292 442.717 511.557C444.037 511.901 445.682 512.098 447.419 512.098Z" fill="#F57C6E"/>
<path d="M452.786 476.164C453.221 476.164 453.662 476.054 454.062 475.826C463.514 470.424 470.893 474.091 471.704 474.528C472.882 475.161 474.389 474.78 475.069 473.666C475.745 472.547 475.33 471.125 474.149 470.486C469.334 467.901 460.518 466.695 451.506 471.845C450.343 472.509 449.971 473.944 450.677 475.045C451.14 475.765 451.953 476.164 452.786 476.164Z" fill="#17272E"/>
<path d="M410.527 478.269C411.132 478.269 411.739 478.054 412.214 477.642C416.197 474.115 424.287 472.725 429.167 476.134C430.261 476.903 431.802 476.682 432.617 475.648C433.428 474.614 433.197 473.162 432.102 472.393C425.139 467.526 414.256 469.457 408.84 474.239C407.849 475.118 407.797 476.59 408.728 477.531C409.215 478.011 409.871 478.269 410.527 478.269Z" fill="#17272E"/>
<path d="M415.214 487.93C415.935 487.93 416.622 487.548 416.938 486.889C417.295 486.151 418.53 485.598 420.078 485.474C422.041 485.339 424.039 485.912 424.704 486.84C425.292 487.665 426.467 487.886 427.341 487.333C428.208 486.773 428.436 485.665 427.85 484.847C426.067 482.349 422.376 481.684 419.765 481.912C416.786 482.139 414.436 483.45 413.493 485.401C413.056 486.299 413.473 487.358 414.425 487.776C414.68 487.88 414.952 487.93 415.214 487.93Z" fill="#1D1E32"/>
<path d="M461.863 487.93C462.583 487.93 463.269 487.548 463.587 486.889C463.947 486.151 465.178 485.598 466.726 485.474C468.697 485.339 470.691 485.912 471.356 486.84C471.936 487.665 473.117 487.886 473.989 487.333C474.858 486.773 475.086 485.665 474.499 484.847C472.719 482.349 469.028 481.684 466.415 481.912C463.432 482.139 461.089 483.45 460.139 485.401C459.703 486.299 460.121 487.358 461.074 487.776C461.332 487.88 461.599 487.93 461.863 487.93Z" fill="#1D1E32"/>
<path d="M385.521 410.904C381.513 411.384 377.502 411.009 374.11 413.525C366.547 419.143 365.79 434.397 364.427 442.599C362.699 452.912 361.723 463.347 361.242 473.77C361.057 477.863 362.119 483.573 360.962 487.523C362.308 482.927 369.11 473.832 376.534 480.103C379.638 482.712 381.46 496.587 383.017 500.063C385.091 504.703 386.095 502.906 390.601 502.894C390.965 489.172 386.541 450.247 401.979 448.795C420.945 447.004 492.7 456.093 489.573 424.195C487.811 406.29 466.535 386.267 439.104 398.346" fill="#17272E"/>
<path d="M448.269 528.983C448.84 528.983 449.415 528.94 449.989 528.872C452.708 528.509 456.528 527.038 459.254 522.153C459.741 521.279 459.384 520.19 458.457 519.729C457.523 519.261 456.375 519.611 455.886 520.486C454.299 523.334 452.132 524.959 449.452 525.316C445.71 525.851 440.886 523.759 437.132 520.067C436.402 519.353 435.197 519.335 434.443 520.024C433.685 520.707 433.66 521.845 434.391 522.559C437.68 525.789 442.901 528.983 448.269 528.983Z" fill="#F57C6E"/>
<path d="M467.39 400.586C470.097 391.534 467.666 383.781 457.251 383.283C446.012 382.735 445.895 399.453 436.881 397.183C427.877 394.931 423.418 382.68 412.527 391.793C408.588 395.091 409.973 400.032 406.54 403.564C402.527 407.686 397.812 406.554 392.742 405.354C383.538 403.176 370.481 401.343 368.749 413.107C367.774 419.709 370.896 420.854 364.955 424.435C360.696 427.007 357.592 427.592 355.442 432.754C351.622 441.904 355.836 454.641 366.836 457.213C379.992 460.283 384.414 445.338 392.125 438.729C403.129 429.296 418.791 426.386 432.751 428.041C447.123 429.752 468.053 434.81 480.773 425.887C487.155 421.408 488.321 417.051 489.964 409.532C490.784 405.798 493.286 397.607 481.908 392.79C476.955 390.703 473.568 395.564 470.593 398.131L467.39 400.586Z" fill="#17272E"/>
<path d="M451.997 788.42C453.047 788.42 453.895 787.616 453.895 786.628V607.768C453.895 606.777 453.047 605.977 451.997 605.977C450.952 605.977 450.104 606.777 450.104 607.768V786.628C450.104 787.616 450.952 788.42 451.997 788.42Z" fill="#1D1E32"/>
<path d="M402.691 788.42C403.741 788.42 404.589 787.616 404.589 786.628V607.768C404.589 606.777 403.741 605.977 402.691 605.977C401.643 605.977 400.794 606.777 400.794 607.768V786.628C400.794 787.616 401.643 788.42 402.691 788.42Z" fill="#1D1E32"/>
<path d="M664.707 740.327C652.722 745.308 741.843 713.977 832.077 587.781L819.008 575.789C803.62 586.329 749.215 650.686 642.065 694.342C642.065 694.342 634.755 699.609 664.707 740.327Z" fill="#F8A18F"/>
<path d="M624.083 676.005C624.083 676.005 682.563 628.245 786.789 595.978C786.789 595.978 814.789 606.862 816.964 627.931C816.964 627.931 714.076 732.628 662.946 758.609C662.946 758.609 608 758.609 624.083 676.005Z" fill="#38669E"/>
<path d="M672.125 645.4C672.471 645.4 672.811 645.308 673.123 645.129C687.49 636.736 703.553 628.46 722.238 619.871C734.543 614.21 748.119 610.019 763.836 605.152C771.346 602.833 779.117 600.433 787.422 597.658C788.407 597.326 788.929 596.31 788.576 595.375C788.224 594.446 787.148 593.954 786.156 594.292C777.89 597.042 770.145 599.436 762.656 601.762C746.802 606.654 733.114 610.887 720.574 616.659C701.771 625.304 685.598 633.629 671.127 642.083C670.239 642.606 669.959 643.708 670.514 644.551C670.872 645.092 671.492 645.4 672.125 645.4Z" fill="#1D1E32"/>
<path d="M877.584 534.705C887.409 542.673 854.394 558.235 850.175 563.421C857.45 559.373 883.833 542.07 890.097 547.583C893.492 551.183 867.78 563.49 863.489 566.695C868.286 565.114 886.073 555.928 889.425 560.677C890.942 564.529 873.025 572.442 868.041 575.716C869.601 575.63 886.195 568.227 886.369 571.894C886.802 575.451 876.139 582.226 870.576 585.228C845.45 598.71 818.076 614.332 813.178 596.193C809.501 582.65 807.875 575.088 830.199 540.754C834.042 534.822 840.002 546.174 834.96 559.502C838.637 560.136 876.428 533.757 877.584 534.705Z" fill="#F8A18F"/>
<path d="M831.76 567.643C831.717 567.299 831.673 566.966 831.637 566.628C831.558 565.926 833.848 565.852 833.942 566.628C833.978 566.966 833.985 567.299 833.985 567.643C833.674 567.452 833.349 567.255 833.024 567.052C834.368 567.175 835.126 567.415 835.155 568.775C835.17 569.791 834.744 570.806 835.423 571.704C836.102 572.603 836.008 573.636 835.878 574.707C835.336 579.241 829.376 583.259 825.337 584.934C824.658 585.216 821.205 584.743 822.541 583.937C825.894 581.906 829.152 580.14 831.399 576.903C832.475 575.347 833.002 573.291 831.904 571.655C831.608 571.218 832.07 568.178 832.331 568.227C832.092 568.185 831.269 568.03 831.362 567.643C831.449 567.255 831.543 566.861 831.68 566.487C831.904 565.828 834.18 565.957 833.898 566.763C833.79 567.096 833.682 567.427 833.559 567.754C833.393 568.246 831.818 568.191 831.76 567.643Z" fill="#1D1E32"/>
<path d="M971.494 589.185C957.97 573.962 943.868 578.029 931.001 578.097C852.978 578.522 778.575 610.241 759.759 626.356C754.793 628.172 733.512 663.921 779.142 670.179C802.24 672.437 945.58 626.922 962.746 625.963C962.746 625.963 985.539 615.65 971.494 589.185Z" fill="#B35950"/>
<path d="M931.702 636.982C1016.31 619.735 1046.64 625.279 1125.95 682.719L1140.72 669.612C1115.9 637.733 1064.42 570.72 953.491 577.555C953.491 577.555 914.068 609.269 931.702 636.982Z" fill="#B35950"/>
<path d="M964.79 640.619L822.78 684.06C749.522 699.707 730.85 652.304 730.85 652.304C721.35 610.973 753.469 586.478 753.469 586.478C753.469 586.478 805.094 571.359 909.596 556.955C909.596 556.955 953.643 610.61 964.79 640.619Z" fill="#832556"/>
<path d="M1124.77 680.886C1124.77 680.886 1117.57 664.531 1132.13 659.547L1168.31 683.113L1195.43 725.391C1195.43 725.391 1199.76 734.706 1192.5 735.32C1192.5 735.32 1162.36 720.801 1143.28 702.619L1140.2 713.854C1140.2 713.854 1134.73 723.275 1130.01 700.692L1124.77 680.886Z" fill="#B35950"/>
<path d="M778.627 711.165C741.726 698.052 779.762 683.888 784.205 678.048C788.661 672.228 973.524 626.147 973.524 626.147L999.316 684.281C999.316 684.281 857.767 739.285 778.627 711.165Z" fill="#F08274"/>
<path d="M804.812 674.578C712.725 649.418 694.634 639.105 642.133 622.683C642.133 622.683 625.92 630.3 636.027 640.798C643.763 648.84 727.046 710.439 794.944 716.463C809.306 717.743 804.812 674.578 804.812 674.578Z" fill="#F08274"/>
<path d="M1008.08 708.666C1008.08 708.666 1065.72 690.982 1049.91 653.953C1049.91 653.953 1030.21 588.717 974.312 588.016L809.941 664.837C809.941 664.837 835.032 716.795 875.033 752.667C875.033 752.667 969.991 724.499 1008.08 708.666Z" fill="#365A99"/>
<path d="M645.859 624.233L632.302 603.085L613.965 584.823C607.5 590.687 617.896 600.334 617.896 600.334C599.95 591.972 585.213 579.844 585.213 579.844C578.903 576.356 578.008 582.503 578.008 582.503C583.817 590.772 603.543 603.885 603.543 603.885C591.358 597.978 572.641 585.487 572.641 585.487C566.915 583.499 567.304 589.444 567.304 589.444C571.867 602.415 597.333 611.626 597.333 611.626C587.607 608.438 568.791 596.809 568.791 596.809C564.426 597.308 565.382 599.455 565.382 599.455C567.328 610.265 591.861 619.071 591.861 619.071L582.765 615.539C570.763 609.687 572.341 617.81 572.341 617.81L578.11 621.809C595.919 633.685 614.115 634.928 614.115 634.928L637.065 639.561L645.859 624.233Z" fill="#F08274"/>
<path d="M1112.92 508.044C1114.1 505.767 1115.11 503.773 1115.93 502.284C1129.55 477.388 1141.25 420.786 1106.48 397.534C1074.41 376.084 1068.33 447.054 1065.28 463.237C1061.75 481.954 1059.16 502.13 1067.51 520.067C1070.65 526.829 1078.72 537.215 1087.84 536.84C1097.94 536.422 1107.33 518.935 1112.92 508.044Z" fill="#9E6B3E"/>
<path d="M1378.21 521.943C1372.83 451.65 1338.65 406.813 1273.76 323.671L1257.39 331.252C1262.73 348.481 1300.99 425.776 1314.99 529.721C1314.99 529.721 1360.73 562.745 1378.21 521.943Z" fill="#F8A18F"/>
<path d="M1378.21 521.944C1377.17 533.29 1367.91 552.678 1360.72 562.745C1317.18 623.803 1247.98 664.697 1223.32 670.542C1218.97 673.452 1175.64 670.369 1195.37 631.076C1206.16 611.675 1325.69 524.282 1336.05 511.323C1336.05 511.323 1362.6 496.266 1378.21 521.944Z" fill="#F8A18F"/>
<path d="M1098.4 498.79L1032.34 498.839L1032.41 576.3L1098.47 576.251L1098.4 498.79Z" fill="#F8A18F"/>
<path d="M1078.26 541.689C1084.9 528.571 1088.83 515.304 1087.72 498.795L1032.34 498.838L1032.4 566.172C1049.79 563.644 1071.21 555.662 1078.26 541.689Z" fill="#F57C6E"/>
<path d="M1002.77 587.887L1032.46 566.979H1098.49L1134.12 587.887H1002.77Z" fill="#F8A18F"/>
<path d="M943.557 797.761C942.799 836.239 942.026 874.71 941.274 913.181C940.819 935.851 939.931 958.541 939.923 981.211C939.916 1009.89 958.989 1009.22 984.903 1003.18C990.906 1001.78 996.772 999.84 1002.8 998.532C1025.79 993.571 1042.16 1013.21 1063.42 1019.11C1084.22 1024.87 1105.59 1033.7 1126.71 1036.93C1149.14 1040.36 1174.6 1034.54 1196.25 1028.36C1218.06 1022.11 1220.4 1016.19 1216.36 997.455C1214.44 988.631 1214.32 979.071 1213.33 970.118C1210.41 943.701 1207.49 917.283 1204.58 890.845C1200.71 855.918 1202.65 795.043 1207.08 765.253L1227.3 674.025C1227.3 674.025 1240.13 643.591 1239.09 637.641C1234.88 613.465 1185.4 600.494 1185.4 600.494L1099.56 566.536C1048.1 604.943 1032.4 566.172 1032.4 566.172L954.603 597.308C954.603 597.308 936.037 606.198 929.289 629.285L943.557 797.761Z" fill="#365A99"/>
<path d="M1267.19 533.345L1157.28 631.309C1144.48 640.81 1139.99 657.546 1139.99 657.546C1160.14 720 1215.73 719.164 1215.73 719.164C1236.23 709.934 1315.23 641.062 1342.8 614.395C1303.96 571.273 1287.66 553.171 1267.19 533.345Z" fill="#365A99"/>
<path d="M940.856 954.991C940.899 954.991 940.957 954.984 941.007 954.978C942.055 954.896 942.828 954.03 942.741 953.049C940.978 933.132 941.759 918.074 942.322 907.076C942.568 902.238 942.784 898.068 942.741 894.43C942.553 876.134 942.936 861.9 943.326 846.821C943.817 827.763 944.345 808.051 943.781 778.056C943.297 751.557 941.39 734.079 938.768 709.891C937.381 697.228 935.82 682.873 934.18 664.537C934.086 663.552 933.154 662.857 932.128 662.9C931.088 662.986 930.308 663.854 930.402 664.832C932.042 683.199 933.609 697.579 934.989 710.254C937.612 734.359 939.505 751.775 939.989 778.11C940.545 808.044 940.032 827.708 939.533 846.733C939.136 861.846 938.768 876.114 938.955 894.464C938.984 897.986 938.775 902.116 938.529 906.899C937.958 917.999 937.178 933.2 938.963 953.349C939.042 954.283 939.873 954.991 940.856 954.991Z" fill="#1D1E32"/>
<path d="M1159.58 910.864C1160.28 910.864 1160.95 910.503 1161.28 909.87C1161.74 908.984 1161.36 907.914 1160.42 907.471C1114.8 886.151 1062.21 843.353 1051.45 787.132C1051.26 786.157 1050.28 785.524 1049.24 785.687C1048.22 785.864 1047.53 786.798 1047.72 787.766C1057.07 836.621 1098.57 882.573 1158.74 910.681C1159 910.81 1159.3 910.864 1159.58 910.864Z" fill="#1D1E32"/>
<path d="M1082.45 928.751C1083.25 928.751 1083.99 928.274 1084.25 927.524C1084.58 926.584 1084.04 925.569 1083.05 925.269C1079.12 923.184 1078.81 887.343 1081.75 877.354C1082.03 876.407 1081.44 875.419 1080.43 875.16C1079.42 874.881 1078.38 875.453 1078.1 876.393C1076.24 882.703 1073.2 925.957 1081.86 928.662C1082.06 928.723 1082.26 928.751 1082.45 928.751Z" fill="#1D1E32"/>
<path d="M1059.07 585.253C1074.57 585.253 1091.33 578.164 1097.37 568.35C1097.9 567.495 1097.59 566.406 1096.69 565.902C1095.78 565.397 1094.61 565.692 1094.09 566.554C1087.95 576.528 1068.29 583.506 1052.84 581.229C1045.49 580.14 1036.2 576.589 1033.74 565.871C1033.52 564.911 1032.5 564.302 1031.48 564.511C1030.45 564.714 1029.81 565.668 1030.03 566.639C1032.31 576.534 1040.21 582.976 1052.26 584.761C1054.47 585.087 1056.76 585.253 1059.07 585.253Z" fill="#1D1E32"/>
<path d="M1055.29 593.911C1057 593.911 1058.75 593.824 1060.52 593.671C1077.5 592.059 1089.66 587.61 1097.71 580.041C1098.44 579.346 1098.44 578.214 1097.71 577.507C1096.96 576.811 1095.76 576.817 1095.02 577.507C1087.62 584.472 1076.21 588.582 1060.14 590.102C1052.6 590.809 1045.49 589.887 1039.61 587.432C1034.65 585.364 1032.19 581.82 1029.33 577.716C1028.23 576.14 1027.1 574.516 1025.8 572.922C1025.16 572.128 1023.98 571.987 1023.14 572.597C1022.3 573.2 1022.16 574.325 1022.79 575.107C1024.04 576.627 1025.11 578.171 1026.16 579.673C1029.22 584.059 1032.09 588.213 1038.07 590.705C1043.16 592.821 1049.03 593.911 1055.29 593.911Z" fill="#1D1E32"/>
<path d="M1220.26 627.673C1220.88 627.673 1221.48 627.39 1221.84 626.874C1222.43 626.048 1222.18 624.935 1221.32 624.393C1213.64 619.582 1203.12 616.167 1192.94 612.856C1188.44 611.404 1184.2 610.026 1180.33 608.568C1165.26 602.907 1145.57 595.099 1127.02 584.989C1126.11 584.485 1124.96 584.78 1124.43 585.635C1123.91 586.49 1124.22 587.586 1125.12 588.078C1143.89 598.317 1163.74 606.181 1178.93 611.891C1182.88 613.379 1187.17 614.764 1191.7 616.241C1201.66 619.477 1211.95 622.819 1219.21 627.372C1219.54 627.569 1219.9 627.673 1220.26 627.673Z" fill="#1D1E32"/>
<path d="M1215.73 720.961C1216.11 720.961 1216.5 720.844 1216.83 720.629C1232.33 710.242 1246.33 699.289 1259.86 688.688C1265.57 684.214 1271.17 679.833 1276.73 675.613C1292.09 663.946 1303.73 653.153 1318.47 639.488C1323.84 634.509 1329.57 629.193 1335.97 623.384C1336.73 622.702 1336.75 621.569 1336.02 620.85C1335.3 620.148 1334.11 620.111 1333.35 620.8C1326.92 626.621 1321.19 631.956 1315.81 636.934C1301.14 650.526 1289.56 661.276 1274.35 672.825C1268.77 677.052 1263.16 681.451 1257.44 685.938C1243.95 696.496 1230.01 707.411 1214.63 717.712C1213.78 718.278 1213.58 719.398 1214.18 720.198C1214.55 720.69 1215.14 720.961 1215.73 720.961Z" fill="#1D1E32"/>
<path d="M1194.83 1005.09C1194.86 1005.09 1194.89 1005.09 1194.92 1005.09C1195.96 1005.05 1196.77 1004.21 1196.72 1003.23C1195.04 968.932 1194.06 945.683 1193.15 917.46C1192 882.11 1192.17 831.006 1192.32 785.932C1192.43 753.28 1192.53 725.077 1192.14 707.165C1192.11 706.187 1191.28 705.461 1190.2 705.411C1189.15 705.436 1188.32 706.255 1188.34 707.245C1188.74 725.114 1188.64 754.65 1188.53 785.912C1188.38 831.02 1188.21 882.158 1189.35 917.569C1190.27 945.819 1191.25 969.082 1192.94 1003.39C1192.98 1004.34 1193.83 1005.09 1194.83 1005.09Z" fill="#1D1E32"/>
<path d="M1018.93 416.307C1000.02 422.903 1002.15 439.806 998.442 455.964C996.924 462.597 993.912 468.929 992.055 475.334C988.501 468.104 989.845 451.564 988.703 443.775C984.744 416.787 998.42 386.563 992.438 401.699C988.501 411.661 1026.16 385.307 1037.25 383.523C1053.06 380.988 1047.05 393.362 1041.36 408.265L1018.93 416.307Z" fill="#9E6B3E"/>
<path d="M1120.16 474.497C1120.32 484.896 1114.2 496.697 1104.28 501.011C1090.81 506.875 1085.63 495.233 1085.63 483.844C1085.62 474.651 1089.88 458.825 1100.93 455.558C1111.33 452.481 1120.03 465.957 1120.16 474.497Z" fill="#F8A18F"/>
<path d="M1092.55 502.783C1086.23 517.778 1077.61 530.084 1062.65 538.772C1048.01 547.264 1032.87 551.614 1018.74 540.618C1007.48 531.862 1000.18 519.088 996.086 506.216C986.637 476.595 993.804 435.578 1013.76 411.686C1035.68 385.448 1078.05 391.257 1094.45 420.503C1107.81 444.321 1102.74 478.576 1092.55 502.783Z" fill="#F8A18F"/>
<path d="M1015.57 488.12C1028.03 491.338 1038.73 489.043 1050.46 484.674C1063.3 479.893 1070.09 484.723 1076.81 495.577C1078.91 498.962 1086.47 495.577 1090.16 495.94C1091.59 496.082 1093.26 496.826 1094.54 497.719C1103.34 473.968 1106.91 442.71 1094.45 420.503C1078.05 391.257 1035.68 385.448 1013.76 411.686C998.413 430.046 990.675 458.517 992.192 484.17C1000.29 483.53 1007.56 486.052 1015.57 488.12Z" fill="#F8A18F"/>
<path d="M1018.73 540.618C1032.87 551.614 1048.01 547.264 1062.65 538.772C1077.61 530.084 1086.23 517.778 1092.55 502.783C1092.72 502.389 1095.65 490.04 1095.65 490.04C1088.46 482.046 1080.83 503.017 1076.81 495.577C1073.79 489.965 1064.31 483.985 1056.71 486.323C1048.85 488.747 1041.54 491.886 1033.34 493.159C1019.08 495.362 1006.32 486.446 992.438 487.713C993.045 494.168 994.237 500.414 996.086 506.216C1000.18 519.089 1007.48 531.862 1018.73 540.618Z" fill="#9E6B3E"/>
<path d="M1103.96 491.836C1104.13 491.836 1104.3 491.805 1104.47 491.762C1105.49 491.498 1106.08 490.507 1105.79 489.547C1102.98 480.078 1104.86 470.626 1110.08 468.017C1111.01 467.544 1111.37 466.46 1110.88 465.587C1110.38 464.719 1109.23 464.381 1108.3 464.836C1101.34 468.312 1098.75 479.118 1102.13 490.519C1102.36 491.313 1103.13 491.836 1103.96 491.836Z" fill="#F57C6E"/>
<path d="M1114.02 477.309C1114.76 477.309 1115.46 476.903 1115.77 476.219C1116.18 475.309 1115.74 474.251 1114.77 473.857C1111.09 472.374 1105.95 471.476 1102.6 473.457C1101.71 473.98 1101.44 475.088 1102 475.918C1102.55 476.761 1103.72 477.019 1104.62 476.497C1106.58 475.334 1110.38 475.992 1113.27 477.161C1113.51 477.26 1113.77 477.309 1114.02 477.309Z" fill="#F57C6E"/>
<path d="M1016.89 467.888C1016.68 471.192 1014.83 473.764 1012.72 473.654C1010.63 473.542 1009.09 470.774 1009.29 467.475C1009.49 464.184 1011.34 461.605 1013.45 461.716C1015.55 461.827 1017.08 464.59 1016.89 467.888Z" fill="#1D1E32"/>
<path d="M1062.33 470.332C1062.12 473.636 1060.27 476.208 1058.17 476.103C1056.07 475.986 1054.53 473.224 1054.73 469.926C1054.93 466.633 1056.79 464.049 1058.89 464.166C1060.99 464.277 1062.52 467.039 1062.33 470.332Z" fill="#1D1E32"/>
<path d="M1058.98 456.48C1062.86 456.572 1069.56 457.502 1072.86 458.64C1073.68 448.654 1056.11 450.721 1051.95 451.022C1049.94 451.17 1048.09 451.933 1049.26 456.247C1049.85 458.443 1051.64 456.308 1058.98 456.48Z" fill="#9E6B3E"/>
<path d="M1015.86 456.179C1011.99 456.284 1005.29 457.213 1001.99 458.345C1001.16 448.364 1018.73 450.414 1022.9 450.721C1024.9 450.869 1026.75 451.638 1025.59 455.958C1025 458.148 1023.21 456.007 1015.86 456.179Z" fill="#9E6B3E"/>
<path d="M1068.82 482.077C1068.68 484.428 1064 486.077 1058.39 485.776C1052.76 485.474 1048.33 483.332 1048.46 480.982C1048.6 478.637 1053.27 476.995 1058.9 477.29C1064.52 477.591 1068.96 479.739 1068.82 482.077Z" fill="#F57C6E"/>
<path d="M1018.65 482.078C1018.5 484.416 1013.83 486.077 1008.21 485.776C1002.58 485.468 998.145 483.333 998.29 480.982C998.427 478.638 1003.1 476.989 1008.72 477.29C1014.34 477.592 1018.79 479.739 1018.65 482.078Z" fill="#F57C6E"/>
<path d="M1031.1 491.338C1033.02 491.338 1034.88 491.086 1036.35 490.704C1037.36 490.434 1037.94 489.449 1037.66 488.489C1037.38 487.535 1036.33 486.982 1035.31 487.246C1031.44 488.268 1026.33 487.665 1024.8 485.979C1024.55 485.714 1023.91 485.006 1024.76 483.228C1027.16 478.251 1028.96 474.761 1030.32 472.134C1033.55 465.883 1034.42 464.202 1034.42 459.237C1034.42 458.246 1033.56 457.453 1032.51 457.453C1031.46 457.453 1030.61 458.246 1030.61 459.237C1030.61 463.378 1030.05 464.48 1026.89 470.565C1025.53 473.205 1023.71 476.737 1021.3 481.752C1019.68 485.105 1020.99 487.308 1021.91 488.311C1023.93 490.538 1027.63 491.338 1031.1 491.338Z" fill="#F57C6E"/>
<path d="M1114.69 409.458C1105.98 393.343 1088.13 384.956 1069.5 383.227C1051.72 381.578 1011.8 382.606 1005.96 401.102C996.282 431.806 1058.12 426.152 1077.08 427.936C1092.53 429.401 1088.09 468.313 1088.46 482.047C1092.96 482.053 1093.97 483.849 1096.04 479.217C1097.6 475.739 1099.42 461.852 1102.53 459.237C1109.95 452.973 1116.76 462.067 1118.1 466.664C1118.1 466.664 1127.02 439.264 1114.69 409.458Z" fill="#9E6B3E"/>
<path d="M1034.25 507.736C1043.38 507.736 1048.83 500.247 1052.53 495.159C1053.14 494.341 1052.91 493.22 1052.05 492.667C1051.18 492.101 1049.99 492.31 1049.4 493.134C1044.59 499.737 1040.01 505.139 1032.29 504.001C1031.26 503.841 1030.28 504.518 1030.12 505.502C1029.97 506.481 1030.68 507.391 1031.72 507.545C1032.59 507.668 1033.44 507.736 1034.25 507.736Z" fill="#F57C6E"/>
<path d="M1215.76 284.814C1224.44 275.738 1240.18 307.23 1245.6 311.328C1241.46 304.369 1223.71 279.104 1229.7 273.314C1233.59 270.201 1246.06 294.721 1249.36 298.843C1247.79 294.29 1238.45 277.301 1243.57 274.249C1247.68 272.914 1255.66 289.977 1259.01 294.758C1258.97 293.287 1251.48 277.461 1255.38 277.387C1259.16 277.049 1266.11 287.257 1269.16 292.573C1282.89 316.565 1298.85 342.728 1279.5 346.942C1265.06 350.105 1257 351.465 1221.11 329.646C1214.91 325.881 1227.07 320.533 1241.08 325.567C1241.84 322.121 1214.73 285.91 1215.76 284.814Z" fill="#F8A18F"/>
<path d="M1249.68 328.342C1249.31 328.335 1248.96 328.329 1248.59 328.317C1247.21 328.28 1247.21 327.215 1248.59 327.252C1249.07 327.258 1249.55 327.296 1250.02 327.332C1249.47 327.523 1248.91 327.72 1248.36 327.911C1248.45 326.267 1249.77 326.212 1251.3 326.354C1253.22 326.539 1254.66 325.542 1256.71 325.806C1262.16 326.483 1267.12 331.406 1268.9 336.186C1269.39 337.467 1266.06 337.448 1265.47 336.611C1263.41 333.627 1261.84 330.704 1258.74 328.477C1256.81 327.086 1255.47 327.837 1253.5 328.034C1252.93 328.089 1252.42 328.009 1251.85 327.923C1251.66 327.892 1251.47 327.873 1251.29 327.849C1250.33 327.628 1250.23 327.652 1250.99 327.911C1250.83 328.514 1249.87 328.6 1249.32 328.508C1248.89 328.427 1248.44 328.348 1248.02 328.243C1246.54 327.899 1248.38 327.142 1249.17 327.32C1249.5 327.4 1249.82 327.473 1250.14 327.542C1251.09 327.775 1250.24 328.354 1249.68 328.342Z" fill="#1D1E32"/>
<path d="M986.507 392.211C988.27 375.609 994.844 368.866 1013.03 367.149C1027.95 365.758 1043.55 364.903 1058.56 363.531C1079.52 361.617 1085.81 373.554 1099.29 385.018C1107.26 391.811 1128.97 392.211 1126.13 405.809C1123.1 420.423 1105.1 423.364 1093.85 427.271C1069.23 435.848 1044.33 426.422 1020.19 421.481C1002.78 417.925 984.339 412.749 986.507 392.211Z" fill="#9E6B3E"/>
<path d="M650.144 518.381C648.951 516.104 647.933 514.117 647.098 512.64C633.264 487.837 616.83 425.549 651.345 413.218C692.722 398.444 694.236 457.065 697.426 473.223C701.106 491.916 703.852 512.08 695.658 530.078C692.566 536.859 684.586 547.295 675.465 546.987C665.366 546.643 655.834 529.223 650.144 518.381Z" fill="#371009"/>
<path d="M743.389 425.961C762.348 432.41 760.359 449.337 764.195 465.464C765.773 472.085 768.834 478.398 770.745 484.785C774.242 477.536 774.81 469.359 775.893 461.55C778.124 445.393 779.664 431.234 773.335 415.612C769.31 405.674 735.899 394.998 724.789 393.306C708.974 390.882 715.074 403.213 720.887 418.079L743.389 425.961Z" fill="#371009"/>
<path d="M642.633 484.883C642.559 495.288 648.781 507.035 658.731 511.287C672.243 517.046 677.332 505.361 677.253 493.971C677.181 484.785 672.784 468.996 661.725 465.808C651.287 462.806 642.698 476.343 642.633 484.883Z" fill="#B35950"/>
<path d="M664.589 509.016L730.647 508.573L731.215 586.047L665.164 586.478L664.589 509.016Z" fill="#B35950"/>
<path d="M685.075 551.768C678.343 538.699 674.297 525.457 675.276 508.942L730.648 508.573L731.137 575.913C713.73 573.507 692.246 565.686 685.075 551.768Z" fill="#943839"/>
<path d="M670.481 512.96C676.907 527.912 685.636 540.157 700.668 548.734C715.38 557.121 730.543 561.354 744.596 550.26C755.785 541.43 762.968 528.595 766.961 515.692C776.167 486.009 768.684 445.048 748.517 421.297C726.387 395.226 684.057 401.336 667.897 430.699C654.738 454.616 660.088 488.834 670.481 512.96Z" fill="#B35950"/>
<path d="M658.966 502.093C659.801 502.093 660.564 501.571 660.792 500.777C664.087 489.344 661.405 478.564 654.418 475.136C653.479 474.694 652.337 475.026 651.854 475.9C651.365 476.786 651.73 477.863 652.663 478.318C657.902 480.89 659.866 490.341 657.126 499.835C656.852 500.789 657.452 501.78 658.463 502.038C658.626 502.075 658.796 502.093 658.966 502.093Z" fill="#943839"/>
<path d="M648.788 487.64C649.035 487.64 649.29 487.597 649.544 487.492C652.428 486.304 656.225 485.616 658.195 486.766C659.095 487.283 660.264 487.012 660.812 486.176C661.36 485.326 661.079 484.225 660.185 483.701C655.964 481.271 649.806 483.468 648.024 484.206C647.059 484.6 646.618 485.658 647.039 486.563C647.352 487.24 648.05 487.64 648.788 487.64Z" fill="#943839"/>
<path d="M745.849 477.518C746.077 480.816 747.963 483.382 750.063 483.247C752.151 483.124 753.671 480.349 753.443 477.057C753.215 473.765 751.336 471.199 749.235 471.328C747.14 471.451 745.627 474.22 745.849 477.518Z" fill="#1D1E32"/>
<path d="M700.434 480.3C700.662 483.591 702.548 486.163 704.635 486.034C706.736 485.905 708.25 483.136 708.028 479.844C707.806 476.54 705.921 473.968 703.813 474.097C701.719 474.239 700.212 477.007 700.434 480.3Z" fill="#1D1E32"/>
<path d="M694.033 492.095C694.196 494.433 698.88 496.051 704.498 495.707C710.122 495.362 714.545 493.184 714.382 490.846C714.219 488.507 709.535 486.889 703.911 487.234C698.3 487.579 693.877 489.75 694.033 492.095Z" fill="#A2473D"/>
<path d="M744.218 491.726C744.368 494.07 749.059 495.682 754.676 495.344C760.3 494.999 764.724 492.821 764.554 490.489C764.391 488.138 759.7 486.514 754.089 486.865C748.478 487.209 744.048 489.382 744.218 491.726Z" fill="#A2473D"/>
<path d="M731.678 501.073C735.195 501.073 738.96 500.254 740.995 497.984C741.909 496.969 743.194 494.759 741.543 491.419C739.096 486.422 737.244 482.903 735.86 480.275C732.663 474.202 732.089 473.106 732.057 468.972C732.05 467.993 731.202 467.193 730.152 467.193C730.152 467.193 730.145 467.193 730.139 467.193C729.088 467.206 728.246 468.012 728.253 469.002C728.292 473.962 729.173 475.636 732.448 481.862C733.832 484.477 735.658 487.961 738.092 492.92C738.966 494.698 738.327 495.405 738.085 495.67C736.578 497.369 731.463 498.014 727.581 497.011C726.57 496.741 725.526 497.313 725.245 498.273C724.972 499.233 725.565 500.217 726.576 500.469C728.005 500.839 729.806 501.073 731.678 501.073Z" fill="#943839"/>
<path d="M736.317 464.634C736.989 464.634 737.654 464.375 738.137 463.864C742.293 459.576 752.445 461.944 755.204 463.556C756.36 464.227 757.886 463.889 758.597 462.8C759.309 461.698 758.95 460.271 757.788 459.6C753.743 457.249 740.878 454.124 734.49 460.744C733.577 461.686 733.648 463.15 734.66 464.018C735.129 464.424 735.723 464.634 736.317 464.634Z" fill="#371009"/>
<path d="M694.092 467.408C694.705 467.408 695.318 467.193 695.795 466.762C699.755 463.236 707.845 461.79 712.745 465.156C713.841 465.912 715.387 465.685 716.189 464.639C716.992 463.605 716.751 462.153 715.648 461.396C708.556 456.511 697.896 458.492 692.402 463.396C691.417 464.276 691.371 465.753 692.304 466.688C692.794 467.162 693.446 467.408 694.092 467.408Z" fill="#371009"/>
<path d="M759.576 595.984L729.884 575.088H663.865L628.216 595.984H759.576Z" fill="#B35950"/>
<path d="M818.792 805.863C819.55 844.334 820.316 882.812 821.075 921.29C821.515 943.939 822.418 966.643 822.426 989.305C822.426 1017.99 803.36 1017.32 777.452 1011.28C771.444 1009.88 765.572 1007.94 759.543 1006.64C736.552 1001.68 727.268 1001.35 706.005 1007.23C685.219 1013 656.943 1008.47 635.833 1011.71C613.402 1015.15 575.657 1016.09 561.868 999.186C542.905 975.937 547.213 977.293 551.263 958.555C553.167 949.731 553.29 940.184 554.285 931.217C557.202 904.807 554.848 925.364 557.763 898.961C561.626 864.012 560.232 823.613 569.848 789.585L555.396 646.495C550.337 617.877 576.946 608.592 576.946 608.592L662.795 574.633C700.159 601.19 729.943 574.264 729.943 574.264L777.596 592.538C777.596 592.538 800.355 604.168 805.094 640.834L818.792 805.863Z" fill="#832556"/>
<path d="M644.624 477.038C645.746 473.143 644.641 467.513 644.796 463.495C645.172 453.176 646.05 442.869 647.639 432.655C649.29 422.029 651.677 411.304 653.844 400.813C654.633 397.004 655.553 393.626 659.22 391.196C663.33 388.476 669.548 391.306 672.718 387.916C673.834 386.716 672.894 383.252 674.238 381.511C676.156 379.013 678.133 378.902 681.056 378.496C685.773 377.831 688.957 379.954 693.524 381.387C699.539 377.253 695.051 369.832 705.712 371.924C711.342 373.038 717.018 379.708 721.676 376.723C727.019 373.296 725.252 367.039 734.79 368.928C741.758 370.306 744.837 375.758 748.667 380.372C755.393 375.099 759.901 371.137 766.889 379.689C770.765 384.421 771.097 391.042 773.368 395.042C776.676 400.862 780.146 404.529 775.41 411.298C771.887 416.331 767.072 416.565 762.074 418.596C770.458 440.599 700.518 442.371 688.187 436.575C674.871 430.317 686.485 454.77 684.272 457.754C676.809 469.814 674.643 478.466 674.389 492.199C669.899 492.23 668.895 494.039 666.781 489.424C665.196 485.954 663.265 472.097 660.146 469.501C652.669 463.286 645.942 472.423 644.624 477.038Z" fill="#371009"/>
<path d="M821.501 963.079C821.501 963.079 821.508 963.079 821.515 963.079C822.563 963.066 823.401 962.262 823.386 961.28C823.047 928.397 823.184 917.91 823.321 908.657L823.386 902.565C823.834 860.224 823.87 818.885 819.615 778.669C818.069 763.985 816.993 749.738 815.844 734.645C813.843 708.396 811.791 681.242 806.972 647.751C806.828 646.766 805.881 646.065 804.841 646.225C803.801 646.348 803.071 647.252 803.208 648.237C808.02 681.617 810.064 708.704 812.058 734.904C813.207 750.017 814.291 764.292 815.844 779.03C820.085 819.068 820.034 860.292 819.601 902.524L819.521 908.616C819.398 917.876 819.254 928.39 819.601 961.308C819.608 962.282 820.453 963.079 821.501 963.079Z" fill="#1D1E32"/>
<path d="M600.566 957.41C600.844 957.41 601.131 957.349 601.404 957.226C642.709 937.929 671.212 906.354 677.644 872.775C677.827 871.808 677.142 870.874 676.111 870.704C675.081 870.547 674.102 871.174 673.912 872.141C666.586 910.374 630.785 939.51 599.72 954.017C598.783 954.466 598.396 955.536 598.864 956.415C599.192 957.049 599.866 957.41 600.566 957.41Z" fill="#1D1E32"/>
<path d="M565.17 995.118C566.103 995.118 566.918 994.463 567.048 993.571C569.309 977.333 569.607 968.169 569.861 960.074C570.146 951.182 570.392 943.503 573.189 928.873C579.498 895.942 586.341 830.434 591.335 782.6C592.794 768.666 594.089 756.238 595.172 746.548C595.286 745.567 594.531 744.681 593.488 744.586C592.459 744.484 591.513 745.192 591.402 746.174C590.319 755.863 589.018 768.305 587.561 782.253C582.572 830.032 575.742 895.458 569.454 928.246C566.613 943.135 566.361 950.93 566.07 959.965C565.814 967.971 565.524 977.054 563.288 993.094C563.15 994.082 563.883 994.974 564.918 995.104C565.005 995.111 565.089 995.118 565.17 995.118Z" fill="#1D1E32"/>
<path d="M468.402 828.723C453.858 822.829 455.806 805.897 458.18 793.966C472.577 721.655 518.968 658.278 539.163 643.708C541.935 639.419 583.033 626.073 581.398 669.526C579.642 691.062 528.304 799.267 509.395 828.812C509.395 828.812 498.478 843.325 468.402 828.723Z" fill="#B35950"/>
<path d="M474.993 718.591C503.242 667.391 537.837 631.051 537.837 631.051C554.963 611.14 607.696 600.63 607.696 600.63C607.696 600.63 634.07 651.996 601.64 710.887L557.039 781.115C528.622 761.743 500.078 741.731 474.993 718.591Z" fill="#832556"/>
<path d="M632.833 738.61C633.838 738.61 634.677 737.861 634.725 736.914C636.164 709.848 636.397 697.124 635.044 670.265C634.99 669.318 633.505 647.234 613.507 631.414C612.703 630.781 611.507 630.879 610.836 631.636C610.164 632.393 610.271 633.524 611.073 634.152C629.768 648.95 631.246 670.234 631.26 670.449C632.599 697.142 632.37 709.799 630.938 736.73C630.883 737.718 631.692 738.556 632.738 738.604C632.77 738.61 632.802 738.61 632.833 738.61Z" fill="#1D1E32"/>
<path d="M467.18 795.009C504.773 777.565 525.163 800.698 525.163 800.698C530.541 883.119 620.342 1014.85 629.264 1030.05L615.52 1040.46C553.848 1000.69 470.587 886.648 458.045 821.889C458.045 821.889 455.233 800.78 467.18 795.009Z" fill="#B35950"/>
<path d="M728.501 516.191C733.733 516.191 739.266 514.916 742.241 514.117C743.252 513.834 743.833 512.843 743.546 511.889C743.259 510.942 742.195 510.4 741.197 510.659C734.001 512.615 725.037 513.71 721.416 510.985C720.594 510.37 719.393 510.499 718.741 511.262C718.088 512.037 718.219 513.169 719.041 513.791C721.416 515.582 724.886 516.191 728.501 516.191Z" fill="#943839"/>
</g>
<path d="M1257.5 888.075C1143 939.5 1020.44 971.353 889 984C812.5 996 749 996 613.5 996C426.5 996 337.999 944.514 225.859 888.075L355.626 889.999C367.124 889.999 366.595 890.037 368.767 889.999L1257.5 888.075Z" fill="#0D324D"/>
</svg>
