<svg width="846" height="680" viewBox="0 0 846 680" fill="none" xmlns="http://www.w3.org/2000/svg">
<path d="M846 406.333C846 570.692 698.587 658.727 520.136 676.58C497.316 678.863 473.996 680 450.404 680C445.961 680 441.56 679.948 437.179 679.854C436.97 679.854 436.762 679.844 436.553 679.844C430.337 679.698 424.184 679.468 418.103 679.134C392.884 677.779 368.771 674.828 345.784 670.448C325.707 666.621 306.485 661.719 288.119 655.827C282.914 654.159 277.773 652.417 272.704 650.582C92.6256 585.802 0 425.094 0 281.247C0 95.8758 243.542 -35.8322 450.404 8.7066C653.813 52.505 846 220.962 846 406.333Z" fill="white"/>
<path d="M410.047 336.791C409.629 337.385 407.848 340.226 410.133 343.427C410.28 343.631 410.38 343.793 410.442 343.935C432.785 362.529 519.877 426.88 519.877 473.758V570.871H272.179V473.72C272.179 426.543 356.785 362.029 382.132 343.427H382.136C382.996 342.23 383.276 341.076 383.276 340.078C383.276 338.079 382.136 336.677 382.136 336.677C357.285 318.529 272.179 253.714 272.179 206.537V109.423H519.877V206.575C519.877 253.676 434.785 318.029 410.047 336.791Z" fill="#B0D4FF"/>
<path d="M534.084 586.89C534.084 591.86 530.055 595.89 525.084 595.89H265C260.029 595.89 256 591.86 256 586.89V583.92C256 576.714 261.838 570.876 269.044 570.876H521.577C528.484 570.876 534.084 576.476 534.084 583.383V586.89Z" fill="#0D324D"/>
<path d="M343.285 466.529C342.016 488.27 345.946 548.352 345.571 570.871H272.179V473.72C272.179 426.543 355.37 358.979 382.132 343.427H382.136C382.996 342.23 383.276 341.076 383.276 340.078C383.276 338.079 382.136 336.677 382.136 336.677C355.313 320.779 272.179 253.714 272.179 206.537V109.423H321.279L349.785 117.029L349.785 195.529C349.785 195.529 341.097 219.803 349.785 241.529C358.477 263.256 388.896 331.096 388.606 340.15C388.321 349.203 345.455 429.27 343.285 466.529Z" fill="#A4C8FC"/>
<path d="M487.781 173.98C472.766 174.208 446.95 176.916 405.183 187.452C376.588 194.667 327.288 189.233 301.211 185.499C292.062 184.188 283.878 191.28 283.878 200.519V211.71C283.878 242.552 366.86 309.36 388.805 326.489C392.13 329.082 394.073 333.063 394.073 337.281V508.784C394.073 514.641 391.185 520.094 386.388 523.452C369.131 535.531 340.051 570.876 340.051 570.876H450.033C450.033 570.876 420.535 536.766 403.986 524.103C400.205 521.215 397.978 516.74 397.978 511.986V337.233C397.978 333.039 399.887 329.073 403.16 326.451C424.673 309.223 505.841 242.167 505.841 211.349V191.769C505.841 181.837 497.713 173.833 487.781 173.98Z" fill="#1E6CA6"/>
<path d="M521.112 119.013H268.507C261.6 119.013 256 113.413 256 106.507V103C256 98.0293 260.029 93.9999 265 93.9999H525.084C530.055 93.9999 534.084 98.0293 534.084 103V106.041C534.084 113.204 528.275 119.013 521.112 119.013Z" fill="#0D324D"/>
</svg>
