<svg width="842" height="842" viewBox="0 0 842 842" fill="none" xmlns="http://www.w3.org/2000/svg">
<g clip-path="url(#clip0_148_376)">
<path d="M578.131 764.331C559.185 763.145 539.254 760.346 518.362 755.814C466.559 744.565 416.486 741.326 369.225 741.406C173.966 741.713 26.4619 798.505 1.80984 580.679C-23.3348 358.507 218.873 88.5401 395.931 16.7266C603.888 -67.6157 789.043 183.412 832.737 402.505C872.718 603.017 782.435 777.18 578.131 764.331Z" fill="white"/>
<path d="M677.375 311.652C677.375 311.617 677.375 311.589 677.375 311.554L677.333 311.42L677.27 311.315C677.256 311.279 677.24 311.244 677.221 311.21C677.178 311.147 677.128 311.088 677.073 311.034C677.021 310.978 676.963 310.928 676.898 310.887L676.793 310.831C676.76 310.808 676.725 310.789 676.687 310.775C676.644 310.758 676.6 310.744 676.554 310.733H676.463C676.381 310.726 676.299 310.726 676.217 310.733H188.426C188.265 310.732 188.105 310.763 187.956 310.824C187.807 310.885 187.672 310.974 187.558 311.088C187.444 311.201 187.353 311.336 187.291 311.485C187.23 311.633 187.198 311.793 187.198 311.954V341.704V360.291C187.198 360.452 187.23 360.612 187.291 360.76C187.353 360.909 187.444 361.044 187.558 361.157C187.672 361.271 187.807 361.361 187.956 361.421C188.105 361.482 188.265 361.513 188.426 361.512H676.168C676.329 361.513 676.489 361.482 676.638 361.421C676.786 361.361 676.922 361.271 677.036 361.157C677.15 361.044 677.241 360.909 677.303 360.76C677.364 360.612 677.396 360.452 677.396 360.291V311.898C677.396 311.815 677.389 311.733 677.375 311.652Z" fill="white"/>
<path d="M662.984 208.135C662.991 208.056 662.991 207.976 662.984 207.897L652.003 160.787C651.968 160.631 651.902 160.483 651.809 160.353C651.716 160.223 651.599 160.113 651.463 160.029C651.325 159.942 651.172 159.884 651.012 159.857C650.851 159.831 650.687 159.837 650.529 159.875L603.518 170.849L541.813 185.24L474.229 200.943L410.615 215.811L348.869 230.224L281.277 245.927L219.622 260.318L175.957 270.499C175.8 270.536 175.651 270.603 175.52 270.697C175.389 270.791 175.278 270.91 175.192 271.047C175.106 271.183 175.047 271.335 175.021 271.494C174.994 271.653 175 271.816 175.038 271.973L179.248 290.069L185.998 319.02C186.034 319.177 186.101 319.326 186.194 319.457C186.288 319.588 186.408 319.7 186.545 319.784C186.74 319.903 186.963 319.966 187.191 319.967C187.284 319.977 187.378 319.977 187.471 319.967L216.359 313.154L278.064 298.868L339.81 284.392L407.318 268.696L469.064 254.284L532.67 239.437L600.262 223.733L661.966 209.384H662.016H662.065C662.106 209.374 662.146 209.36 662.184 209.342H662.226L662.303 209.3L662.395 209.251L662.465 209.188L662.528 209.132L662.57 209.096L662.612 209.04C662.649 208.999 662.682 208.954 662.71 208.907C662.747 208.841 662.78 208.773 662.809 208.704V208.605C662.823 208.564 662.835 208.522 662.844 208.479C662.844 208.437 662.844 208.395 662.844 208.346C662.844 208.297 662.844 208.283 662.844 208.247L662.984 208.135Z" fill="white"/>
<path d="M171.803 360.965V655.069C171.803 664.892 176.715 669.727 186.461 669.727H652.494C662.247 669.727 667.089 664.885 667.089 655.069V360.965H171.803Z" fill="white"/>
<path d="M667.089 361.267V360.965H171.803V655.069C171.803 664.892 176.715 669.727 186.461 669.727H652.494C662.247 669.727 667.089 664.885 667.089 655.069V361.267Z" fill="#1E6CA6"/>
<path d="M667.089 360.965V655.069C667.089 664.892 662.247 669.727 652.494 669.727H186.461C176.708 669.727 171.803 664.885 171.803 655.069V360.965" stroke="#0D324D" stroke-width="0.87" stroke-linecap="round" stroke-linejoin="round"/>
<path d="M564.414 360.228L612.752 311.891H543.287L494.956 360.228H564.414Z" fill="#0D324D"/>
<path d="M676.168 360.228V311.891L627.837 360.228H676.168Z" fill="#0D324D"/>
<path d="M414.51 311.891L366.179 360.228H429.596L477.934 311.891H414.51Z" fill="#0D324D"/>
<path d="M188.426 341.641L218.219 311.891H188.426V341.641Z" fill="#0D324D"/>
<path d="M296.686 360.228L345.101 311.891H281.593L233.262 360.228H296.686Z" fill="#0D324D"/>
<path d="M612.752 311.891H543.251" stroke="#0D324D" stroke-width="3.5" stroke-linecap="round" stroke-linejoin="round"/>
<path d="M564.414 360.228L612.752 311.891" stroke="#0D324D" stroke-width="3.5" stroke-linecap="round" stroke-linejoin="round"/>
<path d="M627.837 360.228H676.168V311.891" stroke="#0D324D" stroke-width="3.5" stroke-linecap="round" stroke-linejoin="round"/>
<path d="M612.752 311.891H676.169" stroke="#0D324D" stroke-width="3.5" stroke-linecap="round" stroke-linejoin="round"/>
<path d="M676.168 311.891L627.837 360.228" stroke="#0D324D" stroke-width="3.5" stroke-linecap="round" stroke-linejoin="round"/>
<path d="M366.179 360.228L414.51 311.891" stroke="#0D324D" stroke-width="3.5" stroke-linecap="round" stroke-linejoin="round"/>
<path d="M366.179 360.229H429.596" stroke="#0D324D" stroke-width="3.5" stroke-linecap="round" stroke-linejoin="round"/>
<path d="M494.921 360.228L543.252 311.891" stroke="#0D324D" stroke-width="3.5" stroke-linecap="round" stroke-linejoin="round"/>
<path d="M543.252 311.891H477.934" stroke="#0D324D" stroke-width="3.5" stroke-linecap="round" stroke-linejoin="round"/>
<path d="M494.921 360.229H429.596" stroke="#0D324D" stroke-width="3.5" stroke-linecap="round" stroke-linejoin="round"/>
<path d="M429.596 360.228L477.934 311.891" stroke="#0D324D" stroke-width="3.5" stroke-linecap="round" stroke-linejoin="round"/>
<path d="M477.933 311.891H414.51" stroke="#0D324D" stroke-width="3.5" stroke-linecap="round" stroke-linejoin="round"/>
<path d="M188.426 341.641V360.228H233.262" stroke="#0D324D" stroke-width="3.5" stroke-linecap="round" stroke-linejoin="round"/>
<path d="M188.426 341.641L218.233 311.891" stroke="#0D324D" stroke-width="3.5" stroke-linecap="round" stroke-linejoin="round"/>
<path d="M218.233 311.891H188.426V341.641" stroke="#0D324D" stroke-width="3.5" stroke-linecap="round" stroke-linejoin="round"/>
<path d="M296.686 360.228L345.08 311.891" stroke="#0D324D" stroke-width="3.5" stroke-linecap="round" stroke-linejoin="round"/>
<path d="M345.08 311.891H281.593" stroke="#0D324D" stroke-width="3.5" stroke-linecap="round" stroke-linejoin="round"/>
<path d="M233.262 360.228L281.593 311.891" stroke="#0D324D" stroke-width="3.5" stroke-linecap="round" stroke-linejoin="round"/>
<path d="M281.593 311.891H218.232" stroke="#0D324D" stroke-width="3.5" stroke-linecap="round" stroke-linejoin="round"/>
<path d="M233.262 360.229H296.686" stroke="#0D324D" stroke-width="3.5" stroke-linecap="round" stroke-linejoin="round"/>
<path d="M414.51 311.891H345.08" stroke="#0D324D" stroke-width="3.5" stroke-linecap="round" stroke-linejoin="round"/>
<path d="M296.686 360.229H366.179" stroke="#0D324D" stroke-width="3.5" stroke-linecap="round" stroke-linejoin="round"/>
<path d="M564.414 360.229H494.921" stroke="#0D324D" stroke-width="3.5" stroke-linecap="round" stroke-linejoin="round"/>
<path d="M627.838 360.229H564.414" stroke="#0D324D" stroke-width="3.5" stroke-linecap="round" stroke-linejoin="round"/>
<path d="M661.756 208.177L650.775 161.067L603.763 172.048L661.756 208.177Z" fill="#0D324D"/>
<path d="M542.087 186.461L474.495 202.164L532.46 238.23L600.051 222.527L542.087 186.461Z" fill="#0D324D"/>
<path d="M410.889 217.004L349.143 231.424L407.1 267.489L468.847 253.07L410.889 217.004Z" fill="#0D324D"/>
<path d="M180.448 289.788L187.198 318.739L216.085 311.933L180.448 289.788Z" fill="#0D324D"/>
<path d="M277.79 297.661L339.537 283.185L281.509 247.12L219.868 261.539L277.79 297.661Z" fill="#0D324D"/>
<path d="M600.052 222.526L532.46 238.23" stroke="#0D324D" stroke-width="3.5" stroke-linecap="round" stroke-linejoin="round"/>
<path d="M661.756 208.177L600.052 222.526" stroke="#0D324D" stroke-width="3.5" stroke-linecap="round" stroke-linejoin="round"/>
<path d="M661.756 208.177L603.792 172.048" stroke="#0D324D" stroke-width="3.5" stroke-linecap="round" stroke-linejoin="round"/>
<path d="M474.495 202.164L542.087 186.461" stroke="#0D324D" stroke-width="3.5" stroke-linecap="round" stroke-linejoin="round"/>
<path d="M474.495 202.164L532.46 238.23" stroke="#0D324D" stroke-width="3.5" stroke-linecap="round" stroke-linejoin="round"/>
<path d="M532.46 238.229L468.854 253.07" stroke="#0D324D" stroke-width="3.5" stroke-linecap="round" stroke-linejoin="round"/>
<path d="M349.128 231.424L410.889 217.004" stroke="#0D324D" stroke-width="3.5" stroke-linecap="round" stroke-linejoin="round"/>
<path d="M468.854 253.07L407.086 267.489" stroke="#0D324D" stroke-width="3.5" stroke-linecap="round" stroke-linejoin="round"/>
<path d="M407.086 267.489L349.128 231.423" stroke="#0D324D" stroke-width="3.5" stroke-linecap="round" stroke-linejoin="round"/>
<path d="M468.854 253.07L410.889 217.004" stroke="#0D324D" stroke-width="3.5" stroke-linecap="round" stroke-linejoin="round"/>
<path d="M410.889 217.004L474.495 202.164" stroke="#0D324D" stroke-width="3.5" stroke-linecap="round" stroke-linejoin="round"/>
<path d="M180.455 289.816L176.217 271.72L219.889 261.539" stroke="#0D324D" stroke-width="3.5" stroke-linecap="round" stroke-linejoin="round"/>
<path d="M216.086 311.954L187.198 318.76L180.455 289.816" stroke="#0D324D" stroke-width="3.5" stroke-linecap="round" stroke-linejoin="round"/>
<path d="M216.085 311.954L180.448 289.809" stroke="#0D324D" stroke-width="3.5" stroke-linecap="round" stroke-linejoin="round"/>
<path d="M339.558 283.186L277.79 297.661" stroke="#0D324D" stroke-width="3.5" stroke-linecap="round" stroke-linejoin="round"/>
<path d="M219.889 261.539L281.53 247.12" stroke="#0D324D" stroke-width="3.5" stroke-linecap="round" stroke-linejoin="round"/>
<path d="M281.53 247.12L339.558 283.185" stroke="#0D324D" stroke-width="3.5" stroke-linecap="round" stroke-linejoin="round"/>
<path d="M219.889 261.539L277.79 297.661" stroke="#0D324D" stroke-width="3.5" stroke-linecap="round" stroke-linejoin="round"/>
<path d="M277.79 297.661L216.085 311.954" stroke="#0D324D" stroke-width="3.5" stroke-linecap="round" stroke-linejoin="round"/>
<path d="M407.086 267.489L339.558 283.186" stroke="#0D324D" stroke-width="3.5" stroke-linecap="round" stroke-linejoin="round"/>
<path d="M281.53 247.12L349.128 231.423" stroke="#0D324D" stroke-width="3.5" stroke-linecap="round" stroke-linejoin="round"/>
<path d="M542.087 186.461L603.791 172.048" stroke="#0D324D" stroke-width="3.5" stroke-linecap="round" stroke-linejoin="round"/>
<path d="M542.087 186.461L600.052 222.527" stroke="#0D324D" stroke-width="3.5" stroke-linecap="round" stroke-linejoin="round"/>
<path d="M603.792 172.048L650.775 161.067L661.756 208.177" stroke="#0D324D" stroke-width="3.5" stroke-linecap="round" stroke-linejoin="round"/>
<path d="M197.505 264.907H165.79V363.141H244.3V333.481L197.505 264.907ZM188.854 278.835C188.803 280.258 188.202 281.605 187.178 282.593C186.154 283.581 184.786 284.133 183.363 284.133C181.94 284.133 180.573 283.581 179.548 282.593C178.524 281.605 177.924 280.258 177.873 278.835C177.871 277.367 178.446 275.956 179.473 274.906C179.972 274.39 180.573 273.982 181.236 273.708C181.9 273.434 182.614 273.3 183.332 273.313C184.061 273.293 184.787 273.425 185.463 273.699C186.139 273.973 186.751 274.384 187.261 274.906C188.281 275.96 188.853 277.369 188.854 278.835ZM175.67 347.037C175.659 346.31 175.795 345.588 176.068 344.915C176.342 344.241 176.747 343.629 177.262 343.114C177.776 342.6 178.388 342.194 179.062 341.921C179.736 341.647 180.457 341.512 181.185 341.522C181.905 341.5 182.622 341.631 183.288 341.906C183.954 342.18 184.555 342.592 185.051 343.115C185.581 343.62 186.002 344.229 186.287 344.904C186.572 345.579 186.715 346.305 186.707 347.037C186.643 348.481 186.041 349.849 185.019 350.872C183.997 351.894 182.629 352.496 181.185 352.559C180.446 352.57 179.714 352.422 179.037 352.126C178.36 351.829 177.755 351.391 177.262 350.84C176.742 350.356 176.331 349.766 176.057 349.11C175.782 348.455 175.65 347.748 175.67 347.037ZM227.249 352.559C226.51 352.57 225.778 352.422 225.101 352.126C224.425 351.829 223.819 351.391 223.327 350.84C222.804 350.357 222.391 349.768 222.115 349.112C221.839 348.456 221.707 347.749 221.727 347.037C221.718 346.31 221.856 345.589 222.13 344.915C222.405 344.242 222.811 343.63 223.326 343.116C223.84 342.602 224.453 342.196 225.126 341.923C225.8 341.649 226.522 341.513 227.249 341.522C227.969 341.5 228.686 341.631 229.352 341.906C230.019 342.18 230.619 342.592 231.115 343.115C231.646 343.62 232.067 344.229 232.352 344.904C232.636 345.579 232.779 346.305 232.771 347.037C232.708 348.481 232.105 349.849 231.083 350.872C230.061 351.894 228.693 352.496 227.249 352.559Z" fill="#0D324D"/>
<path d="M187.261 282.694C188.28 281.668 188.853 280.281 188.854 278.835C188.852 277.368 188.281 275.959 187.261 274.906C186.751 274.384 186.139 273.973 185.463 273.699C184.787 273.424 184.061 273.293 183.332 273.313C182.613 273.3 181.9 273.434 181.236 273.708C180.572 273.982 179.972 274.39 179.472 274.906C178.446 275.956 177.871 277.366 177.873 278.835C177.873 280.283 178.448 281.671 179.471 282.695C180.495 283.719 181.884 284.294 183.332 284.294C184.06 284.3 184.782 284.161 185.456 283.887C186.13 283.612 186.744 283.207 187.261 282.694Z" fill="white"/>
<path d="M177.262 343.115C176.74 343.623 176.329 344.234 176.055 344.909C175.781 345.584 175.65 346.309 175.669 347.037C175.65 347.748 175.782 348.454 176.056 349.11C176.331 349.766 176.742 350.355 177.262 350.84C177.755 351.39 178.36 351.829 179.037 352.125C179.713 352.422 180.446 352.57 181.185 352.559C182.629 352.496 183.997 351.893 185.019 350.871C186.041 349.849 186.643 348.481 186.707 347.037C186.715 346.305 186.572 345.578 186.287 344.903C186.002 344.229 185.581 343.62 185.051 343.115C184.555 342.592 183.954 342.18 183.288 341.905C182.622 341.631 181.905 341.5 181.185 341.522C180.456 341.5 179.731 341.631 179.056 341.905C178.38 342.179 177.77 342.591 177.262 343.115Z" fill="white"/>
<path d="M223.327 350.833C223.82 351.384 224.425 351.822 225.101 352.118C225.778 352.415 226.51 352.563 227.249 352.552C228.693 352.489 230.061 351.887 231.083 350.864C232.106 349.842 232.708 348.474 232.771 347.03C232.779 346.298 232.637 345.571 232.352 344.897C232.067 344.222 231.646 343.613 231.115 343.108C230.619 342.585 230.019 342.173 229.352 341.898C228.686 341.624 227.969 341.493 227.249 341.515C226.522 341.506 225.8 341.642 225.127 341.916C224.453 342.189 223.841 342.595 223.326 343.109C222.811 343.623 222.405 344.235 222.13 344.908C221.856 345.581 221.719 346.303 221.727 347.03C221.707 347.741 221.839 348.449 222.115 349.105C222.391 349.761 222.804 350.35 223.327 350.833Z" fill="white"/>
<path d="M188.854 278.835C188.852 277.368 188.281 275.959 187.261 274.906C186.751 274.384 186.139 273.973 185.463 273.699C184.787 273.424 184.061 273.293 183.332 273.313C182.613 273.3 181.9 273.434 181.236 273.708C180.572 273.982 179.972 274.39 179.472 274.906C178.446 275.956 177.871 277.366 177.873 278.835C177.873 280.283 178.448 281.671 179.471 282.695C180.495 283.719 181.884 284.294 183.332 284.294C184.054 284.303 184.771 284.169 185.441 283.899C186.111 283.628 186.721 283.228 187.235 282.72C187.748 282.212 188.156 281.607 188.434 280.94C188.712 280.273 188.855 279.558 188.854 278.835" stroke="#0D324D" stroke-width="0.87" stroke-linecap="round" stroke-linejoin="round"/>
<path d="M165.79 264.907V363.112H244.3V333.481L197.505 264.907H165.79Z" stroke="#0D324D" stroke-width="0.87" stroke-linecap="round" stroke-linejoin="round"/>
<path d="M175.669 347.037C175.65 347.748 175.782 348.454 176.056 349.11C176.331 349.766 176.742 350.355 177.262 350.84C177.755 351.39 178.36 351.829 179.037 352.125C179.713 352.422 180.446 352.57 181.184 352.559C182.629 352.496 183.997 351.893 185.019 350.871C186.041 349.849 186.643 348.481 186.707 347.037C186.715 346.305 186.572 345.578 186.287 344.903C186.002 344.229 185.581 343.62 185.051 343.115C184.555 342.592 183.954 342.18 183.288 341.905C182.621 341.631 181.905 341.5 181.184 341.522C180.457 341.511 179.736 341.647 179.062 341.921C178.388 342.194 177.776 342.6 177.262 343.114C176.747 343.628 176.341 344.24 176.068 344.914C175.795 345.588 175.659 346.31 175.669 347.037" stroke="#0D324D" stroke-width="0.87" stroke-linecap="round" stroke-linejoin="round"/>
<path d="M227.249 352.559C228.693 352.496 230.061 351.893 231.083 350.871C232.106 349.849 232.708 348.481 232.771 347.037C232.779 346.305 232.637 345.578 232.352 344.903C232.067 344.229 231.646 343.62 231.115 343.115C230.619 342.592 230.019 342.18 229.352 341.905C228.686 341.631 227.969 341.5 227.249 341.522C226.522 341.512 225.8 341.649 225.127 341.922C224.453 342.196 223.841 342.602 223.326 343.116C222.811 343.63 222.405 344.241 222.13 344.915C221.856 345.588 221.719 346.31 221.727 347.037C221.707 347.748 221.839 348.456 222.115 349.112C222.391 349.768 222.804 350.357 223.327 350.84C223.82 351.39 224.425 351.829 225.101 352.125C225.778 352.422 226.51 352.57 227.249 352.559" stroke="#0D324D" stroke-width="0.87" stroke-linecap="round" stroke-linejoin="round"/>
</g>
<defs>
<clipPath id="clip0_148_376">
<rect width="842" height="842" fill="white"/>
</clipPath>
</defs>
</svg>
