<svg width="518" height="378" viewBox="0 0 518 378" fill="none" xmlns="http://www.w3.org/2000/svg">
<g clip-path="url(#clip0_148_377)">
<mask id="mask0_148_377" style="mask-type:luminance" maskUnits="userSpaceOnUse" x="-82" y="3" width="598" height="347">
<path d="M515.03 3H-81.9702V350H515.03V3Z" fill="white"/>
</mask>
<g mask="url(#mask0_148_377)">
<path d="M505.129 243.331C505.129 296.174 463.767 329.555 408.893 349.747C396.376 354.356 383.149 358.274 369.553 361.582C340.531 368.643 309.805 372.91 280.612 375.113C263.27 376.421 246.459 377 230.869 377C197.305 377 168.261 371.411 143.354 361.582C54.0583 326.327 18.0249 236.447 18.0249 153.616C18.0249 47.6797 121.548 16.6721 230.869 5.29744C452.165 -17.7281 505.129 137.402 505.129 243.331Z" fill="white"/>
<path fill-rule="evenodd" clip-rule="evenodd" d="M223.869 99.2469C216.012 100.58 210.064 102.48 205.773 105.155C199.747 108.911 196.989 114.195 196.801 121.583C196.801 121.601 196.801 121.619 196.8 121.636L196.79 122.062C196.635 128.61 196.574 131.187 197.063 131.298C197.381 131.371 197.931 130.404 198.837 128.81L198.924 128.657L198.95 128.612C198.963 128.588 198.977 128.564 198.991 128.541C202.948 121.764 214.473 118.431 216.223 122.705C216.421 123.189 216.494 123.772 216.416 124.458C216.345 125.084 216.226 125.534 215.975 125.879C215.882 126.007 215.771 126.121 215.637 126.224C215.175 126.578 214.445 126.806 213.266 127.054C212.448 127.225 211.701 127.387 211.012 127.545C209.249 127.948 207.864 128.324 206.626 128.752C204.812 129.38 203.314 130.123 201.405 131.236C200.594 131.708 199.887 132.247 199.315 132.777C198.766 133.287 198.343 133.79 198.073 134.222C197.846 134.585 197.73 134.897 197.738 135.12C197.756 135.606 198.372 135.672 199.761 134.92C201.521 133.97 203.938 133.862 206.404 134.357C210.893 135.258 215.545 138.154 216.68 141.593C217.469 143.981 222.967 141.475 223.436 138.516C224.803 129.88 238.86 124.45 245.096 130.155C245.218 130.267 245.338 130.364 245.461 130.444C246.319 131.003 247.327 130.745 250.754 129.349C250.891 129.293 251.029 129.237 251.168 129.183C253.857 128.117 256.734 127.287 259.378 126.775C262.013 126.265 264.416 126.071 266.173 126.276C267.64 126.45 268.321 126.458 267.684 126.296C267.413 126.227 267.06 125.925 266.689 125.476C266.208 124.896 265.7 124.071 265.306 123.192L265.285 123.145L265.264 123.098C265.102 122.726 264.934 122.37 264.76 122.027C263.846 120.225 262.751 118.808 261.254 117.655C259.02 115.934 255.891 114.8 251.136 113.849C249.914 113.605 248.585 113.373 247.135 113.146C244.241 112.693 242.919 110.413 241.569 103.543C240.704 99.1379 234.031 97.5179 223.869 99.2469ZM185.331 120.9C185.331 123.134 185.468 124.045 185.636 122.928C185.805 121.81 185.805 119.984 185.636 118.867C185.468 117.75 185.331 118.665 185.331 120.9ZM240.022 119.272C240.601 119.555 241.269 119.939 241.978 120.385C243.579 121.392 245.382 122.712 246.793 123.877C248.382 125.189 249.475 126.303 249.227 126.552C249.169 126.612 248.806 126.586 248.232 126.491C247.188 126.318 245.439 125.92 243.524 125.406C235.666 123.296 232.817 122.989 227.696 123.709C224.163 124.205 222.363 123.997 221.967 122.941C221.811 122.522 221.874 121.97 222.137 121.276C222.221 121.057 222.329 120.847 222.462 120.646C223.257 119.438 224.907 118.55 226.972 118.029C229.76 117.326 233.305 117.294 236.53 118.052C237.76 118.341 238.944 118.746 240.022 119.272ZM286.39 123.402C283.896 124.501 281.99 126.053 280.659 128.082C279.331 130.106 278.576 132.605 278.385 135.603C278.275 137.322 278.35 139.205 278.608 141.256C278.713 142.086 278.827 143.025 278.942 144.009C279.277 146.854 279.628 150.075 279.818 152.111C280.042 154.478 280.344 156.471 280.541 156.976C280.573 157.057 280.602 157.099 280.628 157.099C281.954 157.099 283.759 156.062 284.981 154.932C286.116 153.881 286.749 152.75 286.025 152.297C284.963 151.633 285.127 148.973 286.225 148.973C286.742 148.973 287.865 149.471 288.722 150.075C290.086 151.042 290.359 151.017 292.09 148.417C292.235 148.2 292.39 147.964 292.557 147.71C293.193 146.739 293.757 145.749 294.252 144.75C296.833 139.535 297.525 134.076 296.71 129.882C295.628 124.313 291.889 120.976 286.39 123.402ZM259.69 129.066C259.636 129.074 259.584 129.082 259.53 129.09C256.689 129.543 252.416 130.954 250.192 132.04C249.294 132.478 248.73 132.863 248.73 133.11C248.73 133.334 249.051 134.127 249.464 134.935C249.475 134.958 249.487 134.98 249.498 135.003L249.525 135.055C249.537 135.079 249.55 135.103 249.563 135.127C249.567 135.135 249.571 135.143 249.576 135.151C252.563 140.79 251.298 146.59 247.999 150.699C243.392 156.438 234.817 158.883 228.306 152.998C228.297 152.99 228.289 152.982 228.28 152.973C228.271 152.965 228.262 152.957 228.253 152.949C226.694 151.524 224.859 148.88 224.178 147.079C222.129 141.657 218.495 142.613 218.307 148.625C218.088 155.599 213.145 161.166 206.668 162.126C206.015 162.223 205.347 162.273 204.666 162.273C202.958 162.273 202.266 162.335 202.296 162.61C202.299 162.633 202.306 162.658 202.319 162.684C202.381 162.813 202.561 162.98 202.839 163.197C203.471 163.683 204.166 165.739 204.811 168.986C204.945 169.653 205.076 170.371 205.204 171.136C207.229 183.222 212.965 191.147 220.887 194.4C229.662 198.004 241.12 195.877 253.188 187.327C253.24 187.291 253.291 187.254 253.342 187.218C254.898 186.108 255.706 185.845 255.784 186.45C255.839 186.872 255.54 187.715 254.893 188.987C252.006 194.662 247.439 200.513 242.611 205.057C239.464 208.018 236.208 210.424 233.231 211.865C233.077 211.94 232.925 212.012 232.772 212.081L229.936 213.376L229.888 214.325L229.488 222.344L229.486 222.378C229.483 222.438 229.48 222.497 229.477 222.556C229.475 222.601 229.473 222.646 229.471 222.691C229.431 223.523 229.401 224.3 229.385 225.027C229.289 229.134 229.609 231.632 230.919 233.33C232.408 235.26 233.912 236.047 238.806 237.098C240.289 237.418 240.786 238 244.746 238.286C249.696 238.5 244.3 238.251 249.696 238.5C251.219 238.57 249.201 238.123 255.637 238L257.518 236.341L260.62 235.839C260.639 235.835 260.66 235.832 260.681 235.829C265.208 235.081 270.591 232.334 275.635 228.465C279.562 225.452 283.283 221.759 286.233 217.802C286.628 217.272 287.009 216.737 287.376 216.198L288.928 213.911L290.421 211.712L288.953 209.249L286.734 205.526C284.29 201.422 282.378 197.618 280.836 193.729C279.696 190.854 278.759 187.932 277.958 184.809C277.39 182.584 276.895 181.155 276.442 180.448C276.169 180.024 275.912 179.859 275.662 179.938C275.09 180.116 274.554 180.222 274.052 180.243C271.752 180.343 270.164 178.689 269.037 174.307C268.121 170.747 267.509 165.385 267.068 157.698C266.848 153.87 266.671 149.467 266.518 144.423L266.054 129.184L266.053 129.159L266.752 129.025L267.512 128.88L267.812 128.823C270.934 128.228 263.906 128.438 259.69 129.066ZM230.188 132.722C227.407 135.19 225.931 138.172 225.606 141.113C225.063 146.024 227.726 150.822 232.875 152.93C233.34 153.12 233.826 153.289 234.331 153.433C234.898 153.596 235.49 153.728 236.107 153.828C238.699 154.247 240.992 153.749 242.889 152.649C245.578 151.088 247.468 148.318 248.282 145.241C249.572 140.362 248.154 134.71 242.916 131.885C242.912 131.883 242.909 131.881 242.906 131.879C242.901 131.877 242.896 131.874 242.891 131.872C242.888 131.87 242.885 131.868 242.881 131.866C242.878 131.865 242.875 131.863 242.872 131.861C240.191 130.427 236.954 130.075 234.176 130.736C232.785 131.067 231.508 131.651 230.474 132.482C230.377 132.559 230.282 132.64 230.188 132.722ZM239.718 135.823C240.336 136.448 240.647 137.142 240.655 137.867C240.669 139.166 239.709 140.564 237.798 141.84C237.095 142.31 236.409 142.713 235.746 143.05C233.03 144.433 230.71 144.718 229.304 144.032C228.895 143.832 228.564 143.551 228.321 143.191C227.757 142.35 227.681 141.081 228.253 139.422C228.414 138.955 228.672 138.51 229.004 138.092C230.308 136.452 232.763 135.242 235.074 134.869C236.945 134.568 238.721 134.814 239.718 135.823ZM200.102 137.151C199.911 137.234 199.74 137.315 199.597 137.39C199.137 137.632 198.945 137.818 199.168 137.839C199.455 137.868 198.89 139.418 197.906 141.296C197.901 141.305 197.895 141.315 197.89 141.325C197.14 142.75 196.626 144.259 196.327 145.751C195.661 149.073 196.063 152.31 197.301 154.348C198.166 155.774 199.44 156.613 201.043 156.484C203.905 156.253 204.125 156.366 204.125 158.075C204.125 159.585 203.828 159.86 202.478 159.601C201.027 159.324 200.977 159.345 202.2 159.89L202.219 159.899L202.249 159.912L202.278 159.925C204.417 160.868 206.954 160.415 209.251 159.095C212.395 157.288 215.089 153.858 215.695 150.169C215.733 149.942 215.761 149.713 215.783 149.484C215.809 149.201 215.823 148.918 215.823 148.633L215.823 148.418C215.823 148.082 215.823 147.788 215.82 147.533C215.812 147.011 215.785 146.652 215.7 146.432C215.595 146.162 215.402 146.102 215.047 146.21C214.692 146.317 214.176 146.589 213.426 146.986C213.417 146.991 213.408 146.995 213.398 147C213.323 147.04 213.246 147.081 213.166 147.123C211.266 148.125 209.242 148.433 207.496 148.224C204.445 147.859 202.241 145.915 203.019 143.327C203.073 143.145 203.142 142.959 203.227 142.771C203.328 142.547 203.494 142.323 203.711 142.104C204.575 141.229 206.254 140.434 207.888 140.021C209.192 139.692 210.469 139.606 211.279 139.92C211.424 139.977 211.552 140.021 211.662 140.053C211.902 140.122 212.059 140.135 212.144 140.104C212.368 140.023 212.107 139.641 211.575 139.17C210.928 138.599 209.881 137.897 208.809 137.447C208.52 137.325 208.219 137.214 207.909 137.115C206.386 136.63 204.648 136.426 203.068 136.518C201.96 136.583 200.93 136.792 200.102 137.151ZM234.516 169.322C233.119 171.477 229.975 172.951 226.591 173.607C221.794 174.537 216.516 173.824 215.061 171.079L215.048 171.054C214.744 170.48 214.551 170.116 214.655 169.893C214.835 169.506 215.909 169.544 218.846 169.647L218.924 169.65C223.235 169.796 229.271 168.063 232.645 165.703L235.201 163.909L235.438 165.723C235.508 166.274 235.415 167.013 235.21 167.73C235.043 168.314 234.802 168.882 234.516 169.322ZM312.533 179.634C312.541 181.249 312.687 181.83 312.863 180.933L312.866 180.918C313.042 179.999 313.034 178.671 312.85 177.962C312.821 177.851 312.793 177.777 312.767 177.735C312.628 177.515 312.526 178.263 312.533 179.634ZM313.25 194.781C313.25 195.702 313.312 196.271 313.407 196.363C313.458 196.413 313.518 196.323 313.582 196.072C313.767 195.36 313.767 194.198 313.582 193.485C313.461 193.017 313.355 193.111 313.297 193.64C313.267 193.911 313.25 194.297 313.25 194.781ZM185.339 236.118C176.864 241.341 183.312 254.742 192.461 250.916C195.506 249.641 197.542 246.778 197.542 243.774C197.542 243.474 197.53 243.179 197.507 242.889C197.296 240.228 196.139 238.053 194.472 236.637C193.598 235.895 192.585 235.362 191.494 235.078C189.574 234.577 187.414 234.847 185.36 236.105C185.353 236.11 185.346 236.114 185.339 236.118ZM279.733 274.127C278.983 274.885 278.414 275.677 278.004 276.481C275.473 281.443 279.031 286.874 283.831 287.742C286.031 288.14 288.492 287.58 290.75 285.577C291.372 285.026 291.881 284.425 292.286 283.792C294.217 280.781 293.771 277.053 291.685 274.525C290.271 272.81 288.1 271.647 285.404 271.633C284.918 271.631 284.491 271.643 284.102 271.677C282.533 271.814 281.618 272.308 280.203 273.665C280.052 273.809 279.897 273.963 279.733 274.127ZM252.388 273.917C251.074 274.452 249.966 275.186 249.089 276.06C248.129 277.019 247.448 278.147 247.079 279.366C246.539 281.15 246.67 283.129 247.576 285.059L247.602 285.115C247.622 285.156 247.642 285.197 247.662 285.238C250.132 290.243 255.597 290.914 259.346 288.713C261.808 287.268 263.529 284.586 263.182 281.079C263.155 280.808 263.116 280.533 263.064 280.253C262.378 276.558 258.764 273.707 255.218 273.48C254.25 273.418 253.285 273.551 252.388 273.917ZM189.643 275.771C189.411 275.89 189.172 276.034 188.931 276.197C187.799 276.962 186.652 278.141 186.169 279.079C181.869 287.48 192.813 295.667 199.148 288.784C199.398 288.513 199.626 288.236 199.833 287.955C200.117 287.569 200.362 287.175 200.57 286.775C200.634 286.65 200.697 286.524 200.755 286.398C202.857 281.807 200.197 276.637 195.914 275.188C194.046 274.555 191.869 274.631 189.643 275.771ZM220.127 275.682C218.571 276.535 217.462 277.984 216.839 279.657C216.094 281.656 216.044 283.974 216.756 285.973C217.152 287.084 217.784 288.096 218.663 288.901C219.452 289.623 220.339 290.144 221.273 290.482C224.084 291.499 227.321 290.855 229.592 289.009C230.972 287.887 231.994 286.322 232.348 284.415C232.534 283.418 232.535 282.454 232.383 281.545C231.613 276.925 226.886 273.737 222.225 274.864C221.519 275.034 220.815 275.304 220.127 275.682ZM315.762 313.024C314.14 314.314 313.252 316.066 312.976 317.911C312.544 320.819 313.633 323.958 315.772 325.893C317.042 327.041 318.681 327.765 320.591 327.765C322.598 327.765 324.326 327.137 325.682 326.112C327.945 324.4 329.165 321.583 328.891 318.738C328.72 316.952 327.96 315.155 326.498 313.615C324.814 311.839 321.961 311.113 319.358 311.517C318.033 311.723 316.771 312.222 315.762 313.024ZM160.739 314.501C160.488 314.7 160.23 314.958 159.976 315.255C159.173 316.197 158.422 317.529 158.127 318.619C157.679 320.254 157.681 321.766 158.015 323.108C158.281 324.183 158.76 325.148 159.393 325.979C160.429 327.341 161.874 328.343 163.465 328.874C166.105 329.756 169.146 329.342 171.377 327.13C172.008 326.503 172.574 325.732 173.05 324.805C174.623 321.733 174.063 318.623 172.392 316.33C169.868 312.865 164.806 311.27 160.739 314.501ZM286.93 313.926C283.765 315.784 282.485 318.867 282.728 321.783C282.804 322.686 283.025 323.572 283.382 324.401C283.944 325.71 284.844 326.875 286.038 327.735C287.338 328.67 288.987 329.243 290.93 329.243C291.936 329.243 292.851 329.097 293.672 328.835C297.192 327.709 299.012 324.429 299.017 321.162C299.023 317.436 296.665 313.729 291.775 313.262C290.943 313.184 290.074 313.198 289.281 313.287C288.311 313.396 287.458 313.619 286.93 313.926ZM194.925 314.542C188.738 316.307 187.347 324.445 192.484 328.814C195.125 331.057 198.321 331.279 201.44 329.439L201.487 329.412C201.533 329.384 201.579 329.356 201.625 329.328C204.312 327.673 205.443 325.152 205.416 322.64C205.393 320.423 204.467 318.212 202.911 316.61C202.349 316.032 201.707 315.533 200.995 315.141C199.31 314.214 197.237 313.888 194.947 314.536L194.925 314.542ZM257.506 314.55C257.279 314.642 257.06 314.741 256.848 314.846C253.337 316.577 251.641 319.994 251.947 323.25C252.174 325.656 253.493 327.975 255.983 329.461C256.198 329.589 256.415 329.706 256.633 329.812C259.402 331.149 262.424 330.699 264.705 329.154C267.223 327.446 268.836 324.403 268.196 320.959C268.051 320.17 267.776 319.42 267.399 318.725C266.325 316.742 264.428 315.209 262.347 314.51C260.745 313.971 259.035 313.927 257.506 314.55ZM226.061 314.987C224.202 315.671 222.849 316.939 221.997 318.473C221.878 318.686 221.77 318.904 221.67 319.127C219.913 323.069 221.174 328.354 225.342 330.226C225.684 330.38 226.045 330.51 226.425 330.615C229.516 331.465 232.882 330.362 235.076 327.782L235.142 327.704C237.235 325.191 237.374 322.158 236.295 319.63C235.337 317.389 233.42 315.547 231.055 314.818C229.53 314.348 227.82 314.341 226.061 314.987ZM165.556 351.43C164.44 351.883 163.443 352.825 162.686 354.015C161.613 355.703 161.023 357.889 161.262 359.889C161.263 359.894 161.263 359.899 161.264 359.904C162.325 368.669 174.616 369.576 177.137 361.082C177.883 358.56 177.382 356.181 176.107 354.341C174.358 351.816 171.151 350.305 167.712 350.831C167 350.94 166.278 351.137 165.556 351.43ZM197.774 353.227C193.454 355.126 191.711 361.916 194.592 365.616C195.107 366.277 195.673 366.834 196.275 367.293C198.835 369.242 202.035 369.411 204.616 368.219C205.098 367.997 205.557 367.727 205.987 367.413C206.842 366.788 207.581 365.987 208.137 365.03C208.832 363.833 209.243 362.394 209.243 360.754C209.243 359.345 208.966 358.066 208.472 356.956C207.114 353.907 204.117 352.134 200.714 352.449C199.757 352.537 198.767 352.791 197.774 353.227ZM229.067 354.657C228.679 354.874 228.323 355.119 227.999 355.389C225.419 357.536 224.856 361.208 225.821 364.318C226.768 367.369 229.187 369.88 232.617 369.88C232.702 369.88 232.785 369.883 232.864 369.888C233.579 369.941 233.984 370.22 233.778 370.552C233.555 370.924 235.121 370.058 237.265 368.633C239.742 366.984 240.976 364.808 241.267 362.618C241.329 362.142 241.348 361.666 241.326 361.195C241.266 359.95 240.919 358.738 240.34 357.655C238.426 354.072 233.982 351.904 229.067 354.657Z" fill="#F3C37A"/>
<path d="M274.312 231.535C274.063 231.762 273.832 231.993 273.62 232.228C272.555 233.412 271.956 234.72 271.714 236.357C271.706 236.412 271.698 236.467 271.691 236.523L271.302 239.478L273.979 236.523C278.816 231.175 279.784 229.56 278.136 229.504C278.106 229.503 278.074 229.502 278.043 229.502C277.948 229.502 277.843 229.514 277.729 229.537C276.84 229.714 275.398 230.545 274.312 231.535Z" fill="#D9BBA1"/>
<path d="M278.491 236.766L273.518 243.171L275.097 244.467C275.377 244.695 275.662 244.898 275.951 245.075C276.546 245.441 277.156 245.7 277.773 245.865C281.345 246.82 285.102 244.595 286.865 241.333C288.181 238.896 288.386 235.881 286.574 233.179L286.549 233.141C286.532 233.116 286.516 233.091 286.5 233.067C284.184 229.631 283.896 229.808 278.491 236.766Z" fill="#D9BBA1"/>
<path d="M215.651 235.094C214.195 235.891 213.181 237.01 212.549 238.286C211.145 241.117 211.619 244.724 213.33 247.326C214.984 249.844 217.797 251.42 221.184 250.438L222.607 250.026L223.432 249.787L223.219 242.418C223.088 237.851 222.683 234.843 222.158 234.507C221.861 234.316 221.487 234.18 221.061 234.096C219.537 233.797 217.347 234.164 215.651 235.094Z" fill="#D9BBA1"/>
<path d="M226.918 242.434C226.91 246.155 227.022 246.552 227.619 244.904C227.743 244.567 227.833 244.207 227.891 243.831C228.034 242.887 227.974 241.839 227.709 240.776C227.684 240.674 227.657 240.572 227.628 240.47C226.983 238.207 226.922 238.369 226.918 242.434Z" fill="#D9BBA1"/>
<path fill-rule="evenodd" clip-rule="evenodd" d="M285.292 150.435C285.292 151.237 286.098 152.427 287.083 153.079C287.495 153.351 287.861 153.649 288.184 153.966C288.502 154.278 288.777 154.609 289.013 154.956C289.934 156.308 290.25 157.888 290.057 159.423C289.632 162.806 286.74 165.966 282.439 165.966C280.663 165.966 280.174 166.286 280.174 167.444C280.174 168.658 280.659 168.921 282.916 168.917C283.62 168.917 284.306 168.837 284.967 168.688C290.336 167.476 294.06 161.657 292.533 156.063C292.462 155.803 292.378 155.544 292.281 155.286C290.599 150.808 285.292 146.874 285.292 150.435ZM198.824 156.868C198.119 157.055 197.542 157.508 197.542 157.881C197.542 157.905 197.543 157.929 197.547 157.953C197.589 158.268 197.932 158.504 199.003 158.806C199.809 159.034 201.029 159.298 202.844 159.662C203.781 159.848 204.126 159.435 204.126 158.14C204.126 156.33 202.415 155.921 198.824 156.868ZM193.587 160.626C192.181 162.507 191.669 164.79 191.85 167.046C192.128 170.506 194.035 173.906 196.85 175.711C198.163 176.553 199.673 177.048 201.309 177.039C202.897 177.03 204.025 176.881 204.755 176.555C205.662 176.149 205.957 175.471 205.764 174.448C205.519 173.161 205.277 172.889 204.491 173.309C204.392 173.362 204.283 173.426 204.165 173.501C202.84 174.337 201.464 174.498 200.192 174.172C197.462 173.473 195.196 170.536 194.869 167.229C194.723 165.759 194.961 164.215 195.71 162.763C195.865 162.464 195.987 162.178 196.081 161.908C196.311 161.249 196.372 160.683 196.304 160.249C196.21 159.648 195.871 159.301 195.392 159.315C194.898 159.329 194.258 159.727 193.587 160.626ZM312.517 174.833C312.517 175.918 312.606 176.515 312.73 176.418C312.769 176.388 312.81 176.292 312.854 176.124C313.038 175.411 313.038 174.25 312.854 173.537C312.775 173.234 312.701 173.166 312.644 173.3C312.567 173.479 312.517 174.017 312.517 174.833ZM287.748 218.251C286.862 219.598 285.976 220.914 285.092 222.198C279.607 230.165 274.178 236.921 268.965 242.443C258.003 254.056 248.004 260.213 240.478 260.698C235.47 261.021 231.558 258.832 229.187 254.068C228.248 252.181 227.551 249.889 227.124 247.19C226.537 243.48 226.459 239 226.963 233.74C227.174 231.534 227.488 229.19 227.909 226.709C227.976 226.313 228.039 225.932 228.098 225.567C228.723 221.701 228.888 219.556 228.621 218.669C228.571 218.503 228.506 218.38 228.425 218.3C228.217 218.088 227.997 218.039 227.772 218.132C226.718 218.57 225.533 222.144 224.638 226.817C224.41 228.009 224.2 229.272 224.017 230.573C223.414 234.839 223.087 239.511 223.28 243.398C223.947 256.82 231.175 264.334 240.947 264.262C246.023 264.225 251.784 262.142 257.67 257.779C259.44 256.467 261.34 254.875 263.319 253.068C270.497 246.509 278.701 237.101 285.408 227.843C288.694 223.307 291.62 218.807 293.891 214.696L295.067 212.563L295.271 212.191L295.334 212.077L293.946 211.962L293.663 211.939C292.571 211.847 291.614 212.627 289.477 215.685C288.973 216.407 288.402 217.256 287.748 218.251Z" fill="#C47CF3"/>
<path d="M244.959 61.1079C209.467 65.5331 185.736 88.3839 185.784 118.094C185.801 126.786 185.828 126.993 188.561 137.293L190.457 144.455L191.915 141.475C192.717 139.839 194.467 137.783 195.806 136.904C196.635 136.361 197.341 135.692 197.738 135.12C197.73 134.897 197.847 134.585 198.073 134.222C198.033 133.904 198.514 133.387 199.315 132.777C199.887 132.247 200.594 131.708 201.405 131.236C203.314 130.123 204.813 129.38 206.626 128.752C208.322 128.035 209.846 127.548 210.709 127.548C210.811 127.548 210.912 127.547 211.012 127.545C211.701 127.387 212.448 127.225 213.266 127.054C214.445 126.806 215.175 126.578 215.637 126.224C215.762 126.115 215.875 126 215.975 125.879C216.226 125.534 216.345 125.084 216.416 124.458C216.494 123.772 216.421 123.189 216.223 122.705C214.146 118.487 202.928 121.797 198.991 128.541C198.968 128.579 198.946 128.618 198.924 128.657C196.504 132.912 196.532 132.997 196.8 121.636C196.801 121.619 196.801 121.601 196.801 121.583C197.003 113.562 199.331 108.777 205.773 105.155C210.064 102.48 216.012 100.58 223.869 99.2469C234.031 97.5179 240.704 99.1379 241.569 103.543C242.92 110.413 244.241 112.693 247.135 113.146C248.585 113.373 249.914 113.605 251.136 113.849C255.892 114.8 259.021 115.934 261.254 117.655C262.751 118.808 263.846 120.225 264.76 122.027C264.935 122.372 265.105 122.732 265.268 123.106C265.28 123.135 265.293 123.164 265.306 123.192C265.7 124.071 266.208 124.896 266.689 125.476C267.339 126.054 268.223 126.264 269.884 126.507C271.723 126.774 274.649 127.471 276.387 128.058L279.545 129.118L280.659 128.082C281.99 126.053 283.896 124.501 286.39 123.402C291.889 120.976 295.628 124.313 296.71 129.882C297.559 133.992 296.936 139.381 294.252 144.75C293.757 145.749 293.193 146.739 292.557 147.71C292.39 147.964 292.235 148.2 292.09 148.417C290.193 151.333 290.268 151.48 291.49 153.577C291.816 154.133 292.077 154.705 292.28 155.286C292.377 155.544 292.462 155.803 292.533 156.063C294.06 161.657 290.336 167.476 284.967 168.688C284.31 168.837 283.623 168.917 282.916 168.917C280.659 168.921 280.174 168.658 280.174 167.444C280.174 166.286 280.663 165.966 282.438 165.966C286.74 165.966 289.632 162.806 290.057 159.423C290.103 158.573 289.99 157.684 289.695 156.783C289.446 156.017 289.233 155.412 289.012 154.956C288.777 154.609 288.501 154.278 288.184 153.966C287.543 153.665 286.63 154.028 284.981 154.932C283.759 156.062 281.954 157.099 280.628 157.099C280.602 157.099 280.573 157.057 280.541 156.976L280.539 156.974C280.24 156.672 279.476 150.034 278.942 144.009C278.827 143.025 278.713 142.086 278.608 141.256C278.35 139.205 278.275 137.322 278.385 135.603C278.384 135.555 278.384 135.508 278.383 135.463L278.347 131.187L274.741 130.106C272.757 129.511 269.988 129.025 268.593 129.025H266.752L266.053 129.159L266.054 129.184L266.518 144.423C266.671 149.467 266.848 153.87 267.068 157.698C267.51 165.386 268.121 170.747 269.037 174.307C270.164 178.691 271.752 180.343 274.052 180.243C274.554 180.222 275.09 180.116 275.662 179.938C275.912 179.859 276.169 180.024 276.442 180.448C276.896 181.155 277.391 182.583 277.962 184.805C278.76 187.906 279.706 190.854 280.836 193.729C282.378 197.618 284.29 201.422 286.734 205.526L288.953 209.249L290.196 211.316L293.946 211.962L295.334 212.077L295.27 212.191L297.706 212.611C301.402 213.249 306.18 214.173 308.98 214.783C309.307 214.855 309.607 214.922 309.877 214.984C312.946 215.692 314.279 215.808 314.496 215.365C314.502 215.201 314.504 214.994 314.505 214.746C314.421 213.271 314.123 208.714 313.775 203.647C313.666 202.048 313.539 199.524 313.407 196.363C313.312 196.271 313.25 195.702 313.25 194.781C313.25 194.297 313.268 193.911 313.297 193.64C313.153 189.924 313.004 185.573 312.863 180.933C312.687 181.83 312.541 181.249 312.533 179.634C312.526 178.263 312.628 177.515 312.768 177.735C312.755 177.298 312.742 176.859 312.73 176.418C312.606 176.515 312.517 175.918 312.517 174.833C312.517 174.017 312.567 173.479 312.644 173.3C312.549 169.758 312.461 166.16 312.384 162.642C311.711 131.531 311.022 123.555 307.941 111.292C298.412 73.3755 277.866 57.0025 244.959 61.1079Z" fill="#212121"/>
<path d="M227.696 123.709C232.817 122.989 235.667 123.296 243.525 125.406C245.439 125.92 247.188 126.318 248.232 126.491C249.695 126.627 249.057 125.855 246.793 123.877C245.382 122.712 243.579 121.392 241.978 120.385C240.183 119.349 238.348 118.567 236.53 118.052C233.305 117.294 229.76 117.326 226.972 118.029C226.512 118.184 226.062 118.365 225.624 118.571C224.152 119.266 223.107 119.978 222.462 120.646C222.33 120.847 222.221 121.057 222.138 121.276C221.874 121.97 221.811 122.522 221.967 122.941C222.674 123.754 224.636 124.138 227.696 123.709Z" fill="#212121"/>
<path d="M229.004 138.092C227.98 139.727 227.608 141.803 228.321 143.191C228.564 143.551 228.895 143.832 229.304 144.032C230.777 144.611 233.392 144.098 235.746 143.05C236.409 142.713 237.095 142.31 237.798 141.84C239.709 140.564 240.669 139.166 240.655 137.867C240.349 135.807 237.9 134.669 235.074 134.869C232.763 135.242 230.308 136.452 229.004 138.092Z" fill="#212121"/>
<path d="M203.71 142.104C203.392 142.488 203.162 142.902 203.018 143.327C202.241 145.915 204.445 147.859 207.495 148.224C207.617 148.23 207.742 148.232 207.868 148.232C209.426 148.232 211.685 147.672 213.398 147L213.426 146.986C214.176 146.589 214.692 146.317 215.047 146.21C215.27 146.071 215.453 145.935 215.585 145.804C215.337 144.63 214.914 143.502 214.329 142.46C213.501 141.231 212.574 140.107 212.24 140.107C212.21 140.107 212.178 140.106 212.144 140.104C212.059 140.135 211.902 140.122 211.662 140.053C211.311 140 210.907 139.914 210.58 139.815C210.171 139.691 209.073 139.784 207.887 140.021C206.254 140.434 204.575 141.229 203.71 142.104Z" fill="#212121"/>
<path d="M194.869 167.229C195.435 170.293 197.683 173.259 200.192 174.172C201.464 174.498 202.84 174.337 204.165 173.501C204.283 173.426 204.392 173.362 204.491 173.309C204.853 172.706 204.937 170.901 204.812 168.986C204.166 165.739 203.471 163.683 202.84 163.197C202.561 162.98 202.381 162.813 202.319 162.684C202.256 162.655 202.193 162.627 202.128 162.599C200.81 162.504 199.542 162.189 198.382 161.631C197.322 161.517 196.431 161.581 196.082 161.908C195.987 162.178 195.865 162.464 195.71 162.763C194.961 164.215 194.723 165.759 194.869 167.229Z" fill="#212121"/>
<path d="M195.35 176.14C195.35 176.796 195.851 183.335 196.463 190.675C197.072 198.011 197.834 208.911 198.147 214.891C198.84 228.061 197.778 227.057 208.637 224.802C213.594 223.774 219.16 222.717 221.004 222.458C224.959 221.899 225.548 221.571 226.75 219.267C227.102 218.592 227.447 218.216 227.772 218.132C227.997 218.039 228.216 218.088 228.425 218.3C228.505 218.38 228.571 218.503 228.621 218.669C228.834 219.029 229.027 219.562 229.194 220.267C229.39 221.081 229.588 219.887 229.631 217.611C229.665 215.997 229.69 215.01 229.889 214.325L229.936 213.376L232.773 212.081C232.925 212.012 233.077 211.94 233.231 211.865C236.23 210.395 239.479 207.997 242.611 205.057C247.439 200.513 252.006 194.662 254.893 188.987C255.54 187.715 255.839 186.872 255.784 186.45C255.633 186.033 254.818 186.342 253.188 187.327C241.12 195.877 229.662 198.004 220.887 194.4C214.677 192.197 209.851 187.333 207.259 179.962L206.001 176.383L204.755 176.555C204.024 176.881 202.897 177.03 201.309 177.039C199.673 177.048 198.162 176.553 196.85 175.711C195.497 175.07 195.35 175.204 195.35 176.14Z" fill="#212121"/>
<path d="M195.798 140.139C191.843 144.892 191.543 151.354 195.081 155.601C197.434 158.428 198.259 157.926 197.301 154.348C196.063 152.31 195.662 149.073 196.327 145.751C196.579 144.266 197.098 142.829 197.89 141.325L197.906 141.296C199.033 139.144 199.212 137.94 198.684 137.821C197.98 138.191 197.314 138.631 196.697 139.132C196.419 139.42 196.119 139.755 195.798 140.139Z" fill="#212121"/>
<path fill-rule="evenodd" clip-rule="evenodd" d="M194.473 236.637C196.445 238.203 197.445 240.531 197.507 242.889C197.53 243.179 197.542 243.474 197.542 243.774C197.542 246.778 195.506 249.641 192.461 250.916C183.312 254.742 176.865 241.341 185.339 236.118C185.346 236.114 185.353 236.11 185.36 236.105C187.585 234.741 189.408 234.408 191.495 235.078C192.586 235.362 193.598 235.895 194.473 236.637ZM290.145 272.925C290.746 273.418 291.258 273.955 291.686 274.525C293.772 277.053 294.217 280.781 292.287 283.792C290.956 286.157 288.475 287.869 285.196 287.869C284.733 287.869 284.276 287.825 283.832 287.742C279.031 286.874 275.474 281.443 278.004 276.481C278.526 275.399 279.29 274.443 280.203 273.665C281.618 272.308 282.534 271.814 284.102 271.677C286.197 271.188 288.404 271.501 290.145 272.925ZM260.603 275.889C262.253 277.454 263.045 279.274 263.182 281.079C263.53 284.586 261.808 287.268 259.347 288.713C257.025 290.268 253.933 290.658 250.866 288.828C249.424 287.968 248.344 286.688 247.662 285.238C247.633 285.179 247.605 285.119 247.576 285.059C246.67 283.129 246.539 281.15 247.079 279.366C247.4 278.177 248.009 277.083 248.926 276.213C248.981 276.161 249.035 276.11 249.09 276.06C249.966 275.186 251.074 274.452 252.389 273.917C253.286 273.551 254.25 273.418 255.218 273.48C257.106 273.527 258.96 274.328 260.603 275.889ZM198.468 276.573C201.481 279.285 202.275 283.099 200.756 286.398C200.697 286.524 200.635 286.65 200.57 286.775C200.36 287.178 200.114 287.572 199.833 287.955C199.625 288.238 199.396 288.515 199.149 288.784C192.813 295.667 181.869 287.48 186.169 279.079C186.787 277.874 187.766 276.901 188.931 276.197C189.172 276.034 189.412 275.89 189.643 275.771C191.869 274.631 194.046 274.555 195.914 275.188C196.861 275.459 197.737 275.916 198.468 276.573ZM228.678 275.966C230.867 277.313 232.071 279.374 232.384 281.545C232.535 282.454 232.534 283.418 232.348 284.415C231.995 286.322 230.972 287.887 229.593 289.009C228.708 289.77 227.626 290.368 226.362 290.727C224.547 291.241 222.797 291.094 221.273 290.482C220.34 290.144 219.453 289.623 218.664 288.901C217.784 288.096 217.153 287.084 216.757 285.973C215.969 284.065 215.887 281.829 216.839 279.657C217.463 277.984 218.571 276.535 220.127 275.682C220.815 275.304 221.519 275.034 222.225 274.864C224.272 274.332 226.558 274.659 228.678 275.966ZM328.892 318.738C329.197 321.572 328.076 324.425 325.682 326.112C324.327 327.137 322.598 327.765 320.591 327.765C318.681 327.765 317.042 327.041 315.773 325.893C313.614 324.126 312.373 321.212 312.977 317.911C313.252 316.066 314.14 314.314 315.763 313.024C316.772 312.222 318.033 311.723 319.359 311.517C321.874 311.004 324.603 311.613 326.498 313.615C327.96 315.155 328.72 316.952 328.892 318.738ZM172.393 316.33C175.292 320.022 174.251 324.531 171.377 327.13C169.146 329.342 166.106 329.756 163.465 328.874C162.926 328.708 162.38 328.484 161.834 328.198C160.864 327.692 160.067 326.976 159.393 325.979C158.761 325.148 158.281 324.183 158.015 323.108C157.942 322.901 157.872 322.686 157.802 322.465C156.889 319.554 157.977 316.969 159.976 315.255C160.23 314.958 160.488 314.7 160.74 314.501C164.806 311.27 169.868 312.865 172.393 316.33ZM296.897 315.513C298.36 316.99 299.059 319.074 299.017 321.162C299.012 324.429 297.192 327.709 293.673 328.835C290.945 329.913 288.132 329.309 286.038 327.735C284.844 326.875 283.944 325.71 283.382 324.401C283.022 323.585 282.794 322.703 282.729 321.783C282.485 318.867 283.765 315.784 286.93 313.926C287.458 313.619 288.312 313.396 289.281 313.287C291.957 312.809 294.926 313.522 296.897 315.513ZM202.911 316.61C204.806 318.429 205.526 320.576 205.417 322.64C205.443 325.152 204.312 327.673 201.625 329.328C201.563 329.366 201.502 329.403 201.441 329.439C198.893 331.127 195.512 331.387 192.485 328.814C187.347 324.445 188.738 316.307 194.925 314.542C194.932 314.54 194.94 314.538 194.947 314.536C197.217 313.893 199.163 314.076 200.995 315.141C201.707 315.533 202.35 316.032 202.911 316.61ZM265.725 316.522C266.438 317.199 266.993 317.943 267.4 318.725C267.776 319.42 268.051 320.17 268.197 320.959C268.836 324.403 267.224 327.446 264.705 329.154C263.333 330.125 261.618 330.72 259.654 330.72C258.702 330.72 257.646 330.382 256.633 329.812C256.415 329.706 256.198 329.589 255.983 329.461C253.494 327.975 252.174 325.656 251.947 323.25C251.394 319.474 253.689 316.206 256.848 314.846C257.061 314.741 257.279 314.642 257.506 314.55C259.035 313.927 260.746 313.971 262.348 314.51C263.52 314.868 264.67 315.522 265.725 316.522ZM232.228 315.19C234.172 315.936 235.578 317.632 236.295 319.63C237.374 322.158 237.235 325.191 235.142 327.704C235.12 327.73 235.098 327.756 235.077 327.782C232.264 331.095 228.341 331.672 225.342 330.226C221.174 328.354 219.913 323.069 221.67 319.127C221.77 318.902 221.879 318.684 221.997 318.473C222.849 316.939 224.202 315.671 226.061 314.987C227.821 314.341 229.53 314.348 231.055 314.818C231.443 314.915 231.835 315.039 232.228 315.19ZM173.35 351.746C174.475 352.332 175.413 353.247 176.107 354.341C177.382 356.181 177.883 358.56 177.137 361.082C174.616 369.576 162.326 368.669 161.264 359.904C161.263 359.899 161.263 359.894 161.262 359.889C160.988 357.61 161.565 355.582 162.686 354.015C163.444 352.825 164.441 351.883 165.556 351.43C166.278 351.137 167 350.94 167.713 350.831C169.489 350.502 171.449 350.752 173.35 351.746ZM208.472 356.956C209.711 359.415 209.683 362.473 208.137 365.03C207.581 365.987 206.842 366.788 205.987 367.413C205.55 367.735 205.092 368.003 204.617 368.219C202.036 369.411 198.835 369.242 196.276 367.293C194.432 365.956 193.158 363.861 193.158 361.248C193.158 356.093 196.492 352.576 200.714 352.449C204.118 352.134 207.115 353.907 208.472 356.956Z" fill="#D9BBA1"/>
<path d="M256.373 244.109C256.373 248.937 252.5 252 247.672 252C242.844 252 238.931 248.087 238.931 243.259C237.96 236.218 242.804 238.282 247.631 238.282C252.459 238.282 257.87 236.825 256.373 244.109Z" fill="#D9BBA1"/>
<path d="M405.846 330.72C404.056 326.75 387.733 295.794 383.351 288.059C381.73 285.196 379.05 280.406 374.608 272.422C372.409 268.471 369.993 264.123 367.54 259.703L365.933 256.809C364.464 254.162 362.886 251.319 361.191 248.265C359.536 245.28 358.169 242.892 356.96 240.926C356.919 240.864 356.884 240.816 356.858 240.784C356.778 240.686 356.727 240.597 356.709 240.518C355.427 238.458 354.318 236.875 353.217 235.553C351.991 234.159 350.341 232.591 348.92 231.474C348.642 231.262 348.356 231.05 348.06 230.835L348.011 230.801C346.11 229.493 344.196 227.877 343.758 227.215C343.61 226.99 343.297 226.694 342.874 226.367C342.017 225.736 340.692 224.957 339.211 224.201C338.156 223.694 337.284 223.278 336.551 222.95C335.967 222.696 335.385 222.462 334.824 222.253C333.646 221.865 333.002 221.93 332.355 222.403C331.999 222.685 331.595 223.102 331.077 223.684C329.769 225.159 328.225 226.018 325.932 226.552C324.13 226.974 321.444 227.902 319.962 228.621L317.268 229.926C317.268 229.926 314.104 231.474 312.756 233.264C311.408 235.054 308.002 239.291 308.002 239.291L306.583 242.982C304.624 248.091 304.661 254.943 306.679 260.045C308.296 264.148 311.394 269.029 313.21 272.045L313.664 273.338C315.48 275.492 316.893 277.699 329.71 299.186C330.438 300.403 333.294 304.96 336.057 309.315L341.082 317.232L341.029 317.438C341.374 318.076 342.751 320.319 344.47 323.038C344.637 323.301 344.809 323.573 344.986 323.852L345.151 324.112C347.931 328.477 350.351 332.379 352.386 335.772C352.655 336.212 360.315 345.062 360.582 345.5C365.271 353.198 413.98 345.704 413.043 346C409.875 339.346 406.636 332.472 405.846 330.72Z" fill="#F3C37A"/>
<path d="M158.127 269.03C144.362 314.603 114.059 372 121.485 373C140.494 379.8 154.468 381.33 159.08 381.245C143.532 360.705 142.622 353.045 152.148 322.963C155.361 312.805 158.704 301.258 159.573 297.302C160.442 293.347 161.452 290.294 161.812 290.521C162.178 290.747 163.612 290.549 165.002 290.088C172.052 287.739 172.46 277.731 165.628 274.848C163.64 274.01 163.223 273.48 163.507 272.156C163.7 271.249 164.217 267.354 164.65 263.496C165.572 255.317 165.828 248.09 165.828 248.09C165.828 248.09 161.901 256.54 158.127 269.03Z" fill="#F3C37A"/>
<path d="M143.326 54.458C143.326 54.458 146.714 35.0751 159.911 37.1564C173.109 39.2377 153.965 76 153.965 76C153.965 76 121.264 63.7168 126.51 55.4695C131.757 47.2125 143.326 54.458 143.326 54.458Z" fill="#0D324D"/>
<path d="M372.359 93.1591C372.359 93.1591 398.12 72.7225 412.866 90.1012C427.611 107.489 362.33 132 362.33 132C362.33 132 333.655 80.0253 349.531 75.5904C365.407 71.1555 372.359 93.1591 372.359 93.1591Z" fill="#0D324D"/>
<path d="M94.4168 112.431C94.4168 112.431 89.743 93.4405 104.232 90.1842C118.721 86.9292 114.468 127.903 114.468 127.903C114.468 127.903 75.5628 129.48 77.4976 119.917C79.4325 110.345 94.4168 112.431 94.4168 112.431Z" fill="#0D324D"/>
</g>
</g>
<path d="M415.995 346C374.611 358.72 341.204 370.633 299.577 374.601C274.848 376.958 250.878 378 228.648 378C180.789 378 141.456 364.914 105.94 347.208L147.038 347.811C150.68 347.811 150.512 347.823 151.2 347.811L415.995 346Z" fill="#0D324D"/>
<defs>
<clipPath id="clip0_148_377">
<rect width="597" height="347" fill="white" transform="translate(-79)"/>
</clipPath>
</defs>
</svg>
