<svg width="36" height="36" viewBox="0 0 36 36" fill="none" xmlns="http://www.w3.org/2000/svg">
<g clip-path="url(#clip0_15_193)">
<path d="M18 2C16.5632 2.00398 15.1335 2.20245 13.75 2.59L14.52 4.45C17.5107 3.65814 20.6789 3.87405 23.5345 5.06432C26.3901 6.25458 28.7738 8.35283 30.3167 11.0344C31.8596 13.7159 32.4756 16.8312 32.0696 19.8981C31.6635 22.9651 30.2579 25.8127 28.0703 28.0003C25.8827 30.1879 23.0351 31.5935 19.9681 31.9996C16.9012 32.4057 13.7859 31.7896 11.1044 30.2467C8.42283 28.7038 6.32458 26.3201 5.13431 23.4645C3.94405 20.6089 3.72814 17.4407 4.52 14.45L2.66 13.67C1.75231 16.899 1.88234 20.3316 3.03172 23.4826C4.18109 26.6337 6.29168 29.3439 9.06519 31.2301C11.8387 33.1164 15.1349 34.0833 18.4878 33.9942C21.8408 33.9052 25.081 32.7646 27.7504 30.7338C30.4199 28.703 32.3836 25.8846 33.3641 22.677C34.3446 19.4694 34.2922 16.0347 33.2144 12.8585C32.1366 9.6822 30.0878 6.92499 27.3577 4.9765C24.6276 3.02802 21.3541 1.9868 18 2V2Z" fill="#0D324D"/>
<path d="M7.45002 15.7C6.95091 17.9806 7.2035 20.3615 8.17003 22.4865C9.13655 24.6116 10.7651 26.3667 12.812 27.4893C14.8589 28.6119 17.2143 29.0417 19.5258 28.7143C21.8372 28.387 23.9807 27.3202 25.6354 25.6734C27.2902 24.0266 28.3674 21.8884 28.7059 19.5785C29.0443 17.2686 28.626 14.9112 27.5133 12.8589C26.4006 10.8065 24.6534 9.16958 22.533 8.1928C20.4126 7.21602 18.033 6.95193 15.75 7.44002L16.37 9.00002C18.3124 8.63636 20.3201 8.90499 22.0986 9.76646C23.877 10.6279 25.3324 12.0369 26.2511 13.7864C27.1698 15.5359 27.5034 17.5339 27.203 19.4871C26.9026 21.4402 25.9839 23.2455 24.5818 24.6381C23.1798 26.0306 21.3682 26.937 19.4131 27.2241C17.458 27.5113 15.4623 27.1641 13.719 26.2335C11.9758 25.3029 10.5768 23.8379 9.72745 22.0536C8.8781 20.2694 8.62315 18.2598 9.00002 16.32L7.45002 15.7Z" fill="#0D324D"/>
<path d="M18 22.09C16.9976 22.0752 16.0358 21.6918 15.298 21.0131C14.5602 20.3343 14.0982 19.4077 14 18.41L12.37 17.73V18C12.3701 19.1279 12.7053 20.2304 13.3333 21.1673C13.9612 22.1043 14.8534 22.8335 15.8966 23.2624C16.9398 23.6912 18.087 23.8003 19.1923 23.5759C20.2977 23.3514 21.3114 22.8035 22.1047 22.0017C22.898 21.2 23.4352 20.1805 23.6479 19.0728C23.8606 17.9652 23.7393 16.8193 23.2995 15.7806C22.8596 14.742 22.1209 13.8576 21.1774 13.2396C20.2338 12.6217 19.1278 12.2981 18 12.31H17.76L18.43 14C19.4295 14.1516 20.3368 14.6697 20.9753 15.4534C21.6137 16.2372 21.9377 17.2305 21.884 18.24C21.8304 19.2495 21.403 20.2029 20.685 20.9146C19.967 21.6262 19.0099 22.0452 18 22.09V22.09Z" fill="#0D324D"/>
<path d="M8.20006 13.34C8.29237 13.4342 8.41817 13.4881 8.55006 13.49H12.2001L17.5701 18.86C17.7584 19.0496 18.0143 19.1567 18.2815 19.1576C18.5488 19.1585 18.8054 19.0533 18.9951 18.865C19.1847 18.6767 19.2917 18.4208 19.2927 18.1535C19.2936 17.8863 19.1884 17.6296 19.0001 17.44L13.5301 12V8.50998C13.5282 8.37809 13.4743 8.25229 13.3801 8.15998L7.79006 2.56998C7.72017 2.50146 7.63171 2.45496 7.53565 2.43623C7.43958 2.41751 7.34013 2.4274 7.24963 2.46466C7.15913 2.50193 7.08156 2.56493 7.02653 2.64587C6.9715 2.72681 6.94143 2.82212 6.94006 2.91998V6.91998H3.00006C2.90219 6.92135 2.80689 6.95142 2.72595 7.00645C2.64501 7.06148 2.58201 7.13905 2.54474 7.22955C2.50748 7.32006 2.49759 7.4195 2.51631 7.51557C2.53503 7.61163 2.58154 7.70009 2.65006 7.76998L8.20006 13.34Z" fill="#0D324D"/>
</g>
<defs>
<clipPath id="clip0_15_193">
<rect width="36" height="36" fill="white"/>
</clipPath>
</defs>
</svg>
